<?xml version="1.0" encoding="utf-8" standalone="no"?>
<!DOCTYPE svg PUBLIC "-//W3C//DTD SVG 1.1//EN"
  "http://www.w3.org/Graphics/SVG/1.1/DTD/svg11.dtd">
<svg xmlns:xlink="http://www.w3.org/1999/xlink" width="946.427186pt" height="697.9pt" viewBox="0 0 946.427186 697.9" xmlns="http://www.w3.org/2000/svg" version="1.1">
 <metadata>
  <rdf:RDF xmlns:dc="http://purl.org/dc/elements/1.1/" xmlns:cc="http://creativecommons.org/ns#" xmlns:rdf="http://www.w3.org/1999/02/22-rdf-syntax-ns#">
   <cc:Work>
    <dc:type rdf:resource="http://purl.org/dc/dcmitype/StillImage"/>
    <dc:date>2026-01-23T21:54:00.622448</dc:date>
    <dc:format>image/svg+xml</dc:format>
    <dc:creator>
     <cc:Agent>
      <dc:title>Matplotlib v3.10.8, https://matplotlib.org/</dc:title>
     </cc:Agent>
    </dc:creator>
   </cc:Work>
  </rdf:RDF>
 </metadata>
 <defs>
  <style type="text/css">*{stroke-linejoin: round; stroke-linecap: butt}</style>
 </defs>
 <g id="figure_1">
  <g id="patch_1">
   <path d="M 0 697.9 
L 946.427186 697.9 
L 946.427186 0 
L 0 0 
z
" style="fill: #ffffff"/>
  </g>
  <g id="axes_1">
   <g id="patch_2">
    <path d="M 39.427186 336.714894 
L 427.601099 336.714894 
L 427.601099 100.8 
L 39.427186 100.8 
z
" style="fill: #ffffff"/>
   </g>
   <g id="patch_3">
    <path d="M 57.071454 336.714894 
L 68.215203 336.714894 
L 68.215203 240.81453 
L 57.071454 240.81453 
z
" clip-path="url(#pcdebeb5e4b)" style="fill: #95a5a6; opacity: 0.85; stroke: #000000; stroke-linejoin: miter"/>
   </g>
   <g id="patch_4">
    <path d="M 131.363112 336.714894 
L 142.506861 336.714894 
L 142.506861 112.034043 
L 131.363112 112.034043 
z
" clip-path="url(#pcdebeb5e4b)" style="fill: #95a5a6; opacity: 0.85; stroke: #000000; stroke-linejoin: miter"/>
   </g>
   <g id="patch_5">
    <path d="M 205.65477 336.714894 
L 216.798519 336.714894 
L 216.798519 268.214634 
L 205.65477 268.214634 
z
" clip-path="url(#pcdebeb5e4b)" style="fill: #95a5a6; opacity: 0.85; stroke: #000000; stroke-linejoin: miter"/>
   </g>
   <g id="patch_6">
    <path d="M 279.946428 336.714894 
L 291.090177 336.714894 
L 291.090177 199.714375 
L 279.946428 199.714375 
z
" clip-path="url(#pcdebeb5e4b)" style="fill: #95a5a6; opacity: 0.85; stroke: #000000; stroke-linejoin: miter"/>
   </g>
   <g id="patch_7">
    <path d="M 354.238086 336.714894 
L 365.381835 336.714894 
L 365.381835 117.514063 
L 354.238086 117.514063 
z
" clip-path="url(#pcdebeb5e4b)" style="fill: #95a5a6; opacity: 0.85; stroke: #000000; stroke-linejoin: miter"/>
   </g>
   <g id="patch_8">
    <path d="M 68.215203 336.714894 
L 79.358952 336.714894 
L 79.358952 281.914686 
L 68.215203 281.914686 
z
" clip-path="url(#pcdebeb5e4b)" style="fill: #3498db; opacity: 0.85; stroke: #000000; stroke-linejoin: miter"/>
   </g>
   <g id="patch_9">
    <path d="M 142.506861 336.714894 
L 153.65061 336.714894 
L 153.65061 186.014323 
L 142.506861 186.014323 
z
" clip-path="url(#pcdebeb5e4b)" style="fill: #3498db; opacity: 0.85; stroke: #000000; stroke-linejoin: miter"/>
   </g>
   <g id="patch_10">
    <path d="M 216.798519 336.714894 
L 227.942268 336.714894 
L 227.942268 303.834769 
L 216.798519 303.834769 
z
" clip-path="url(#pcdebeb5e4b)" style="fill: #3498db; opacity: 0.85; stroke: #000000; stroke-linejoin: miter"/>
   </g>
   <g id="patch_11">
    <path d="M 291.090177 336.714894 
L 302.233926 336.714894 
L 302.233926 249.034561 
L 291.090177 249.034561 
z
" clip-path="url(#pcdebeb5e4b)" style="fill: #3498db; opacity: 0.85; stroke: #000000; stroke-linejoin: miter"/>
   </g>
   <g id="patch_12">
    <path d="M 365.381835 336.714894 
L 376.525584 336.714894 
L 376.525584 213.414427 
L 365.381835 213.414427 
z
" clip-path="url(#pcdebeb5e4b)" style="fill: #3498db; opacity: 0.85; stroke: #000000; stroke-linejoin: miter"/>
   </g>
   <g id="patch_13">
    <path d="M 79.358952 336.714894 
L 90.5027 336.714894 
L 90.5027 287.394707 
L 79.358952 287.394707 
z
" clip-path="url(#pcdebeb5e4b)" style="fill: #e74c3c; opacity: 0.85; stroke: #000000; stroke-linejoin: miter"/>
   </g>
   <g id="patch_14">
    <path d="M 153.65061 336.714894 
L 164.794358 336.714894 
L 164.794358 205.194395 
L 153.65061 205.194395 
z
" clip-path="url(#pcdebeb5e4b)" style="fill: #e74c3c; opacity: 0.85; stroke: #000000; stroke-linejoin: miter"/>
   </g>
   <g id="patch_15">
    <path d="M 227.942268 336.714894 
L 239.086016 336.714894 
L 239.086016 309.31479 
L 227.942268 309.31479 
z
" clip-path="url(#pcdebeb5e4b)" style="fill: #e74c3c; opacity: 0.85; stroke: #000000; stroke-linejoin: miter"/>
   </g>
   <g id="patch_16">
    <path d="M 302.233926 336.714894 
L 313.377674 336.714894 
L 313.377674 259.994603 
L 302.233926 259.994603 
z
" clip-path="url(#pcdebeb5e4b)" style="fill: #e74c3c; opacity: 0.85; stroke: #000000; stroke-linejoin: miter"/>
   </g>
   <g id="patch_17">
    <path d="M 376.525584 336.714894 
L 387.669332 336.714894 
L 387.669332 232.594499 
L 376.525584 232.594499 
z
" clip-path="url(#pcdebeb5e4b)" style="fill: #e74c3c; opacity: 0.85; stroke: #000000; stroke-linejoin: miter"/>
   </g>
   <g id="patch_18">
    <path d="M 90.5027 336.714894 
L 101.646449 336.714894 
L 101.646449 309.31479 
L 90.5027 309.31479 
z
" clip-path="url(#pcdebeb5e4b)" style="fill: #2ecc71; opacity: 0.85; stroke: #000000; stroke-width: 2; stroke-linejoin: miter"/>
   </g>
   <g id="patch_19">
    <path d="M 164.794358 336.714894 
L 175.938107 336.714894 
L 175.938107 268.214634 
L 164.794358 268.214634 
z
" clip-path="url(#pcdebeb5e4b)" style="fill: #2ecc71; opacity: 0.85; stroke: #000000; stroke-width: 2; stroke-linejoin: miter"/>
   </g>
   <g id="patch_20">
    <path d="M 239.086016 336.714894 
L 250.229765 336.714894 
L 250.229765 323.014842 
L 239.086016 323.014842 
z
" clip-path="url(#pcdebeb5e4b)" style="fill: #2ecc71; opacity: 0.85; stroke: #000000; stroke-width: 2; stroke-linejoin: miter"/>
   </g>
   <g id="patch_21">
    <path d="M 313.377674 336.714894 
L 324.521423 336.714894 
L 324.521423 287.394707 
L 313.377674 287.394707 
z
" clip-path="url(#pcdebeb5e4b)" style="fill: #2ecc71; opacity: 0.85; stroke: #000000; stroke-width: 2; stroke-linejoin: miter"/>
   </g>
   <g id="patch_22">
    <path d="M 387.669332 336.714894 
L 398.813081 336.714894 
L 398.813081 281.914686 
L 387.669332 281.914686 
z
" clip-path="url(#pcdebeb5e4b)" style="fill: #2ecc71; opacity: 0.85; stroke: #000000; stroke-width: 2; stroke-linejoin: miter"/>
   </g>
   <g id="patch_23">
    <path d="M 101.646449 336.714894 
L 112.790198 336.714894 
L 112.790198 295.614738 
L 101.646449 295.614738 
z
" clip-path="url(#pcdebeb5e4b)" style="fill: #f39c12; opacity: 0.85; stroke: #000000; stroke-linejoin: miter"/>
   </g>
   <g id="patch_24">
    <path d="M 175.938107 336.714894 
L 187.081856 336.714894 
L 187.081856 221.634458 
L 175.938107 221.634458 
z
" clip-path="url(#pcdebeb5e4b)" style="fill: #f39c12; opacity: 0.85; stroke: #000000; stroke-linejoin: miter"/>
   </g>
   <g id="patch_25">
    <path d="M 250.229765 336.714894 
L 261.373514 336.714894 
L 261.373514 314.794811 
L 250.229765 314.794811 
z
" clip-path="url(#pcdebeb5e4b)" style="fill: #f39c12; opacity: 0.85; stroke: #000000; stroke-linejoin: miter"/>
   </g>
   <g id="patch_26">
    <path d="M 324.521423 336.714894 
L 335.665172 336.714894 
L 335.665172 268.214634 
L 324.521423 268.214634 
z
" clip-path="url(#pcdebeb5e4b)" style="fill: #f39c12; opacity: 0.85; stroke: #000000; stroke-linejoin: miter"/>
   </g>
   <g id="patch_27">
    <path d="M 398.813081 336.714894 
L 409.95683 336.714894 
L 409.95683 249.034561 
L 398.813081 249.034561 
z
" clip-path="url(#pcdebeb5e4b)" style="fill: #f39c12; opacity: 0.85; stroke: #000000; stroke-linejoin: miter"/>
   </g>
   <g id="matplotlib.axis_1">
    <g id="xtick_1">
     <g id="line2d_1">
      <defs>
       <path id="m654377e6a8" d="M 0 0 
L 0 3.5 
" style="stroke: #000000; stroke-width: 0.8"/>
      </defs>
      <g>
       <use xlink:href="#m654377e6a8" x="84.930826" y="336.714894" style="stroke: #000000; stroke-width: 0.8"/>
      </g>
     </g>
     <g id="text_1">
      <text style="font-size: 14px; font-family: 'SimSun', 'DejaVu Sans', sans-serif" transform="translate(10.08745 374.42007) rotate(-15)">检测延迟(s)</text>
     </g>
    </g>
    <g id="xtick_2">
     <g id="line2d_2">
      <g>
       <use xlink:href="#m654377e6a8" x="159.222484" y="336.714894" style="stroke: #000000; stroke-width: 0.8"/>
      </g>
     </g>
     <g id="text_2">
      <text style="font-size: 14px; font-family: 'SimSun', 'DejaVu Sans', sans-serif" transform="translate(97.90207 370.585307) rotate(-15)">超调量(%)</text>
     </g>
    </g>
    <g id="xtick_3">
     <g id="line2d_3">
      <g>
       <use xlink:href="#m654377e6a8" x="233.514142" y="336.714894" style="stroke: #000000; stroke-width: 0.8"/>
      </g>
     </g>
     <g id="text_3">
      <text style="font-size: 14px; font-family: 'SimSun', 'DejaVu Sans', sans-serif" transform="translate(158.670766 374.367246) rotate(-15)">稳态误差(%)</text>
     </g>
    </g>
    <g id="xtick_4">
     <g id="line2d_4">
      <g>
       <use xlink:href="#m654377e6a8" x="307.8058" y="336.714894" style="stroke: #000000; stroke-width: 0.8"/>
      </g>
     </g>
     <g id="text_4">
      <text style="font-size: 14px; font-family: 'SimSun', 'DejaVu Sans', sans-serif" transform="translate(232.962424 374.208774) rotate(-15)">响应时间(s)</text>
     </g>
    </g>
    <g id="xtick_5">
     <g id="line2d_5">
      <g>
       <use xlink:href="#m654377e6a8" x="382.097458" y="336.714894" style="stroke: #000000; stroke-width: 0.8"/>
      </g>
     </g>
     <g id="text_5">
      <text style="font-size: 14px; font-family: 'SimSun', 'DejaVu Sans', sans-serif" transform="translate(307.254082 374.42007) rotate(-15)">假阳性率(%)</text>
     </g>
    </g>
   </g>
   <g id="matplotlib.axis_2">
    <g id="ytick_1">
     <g id="line2d_6">
      <path d="M 39.427186 336.714894 
L 427.601099 336.714894 
" clip-path="url(#pcdebeb5e4b)" style="fill: none; stroke: #b0b0b0; stroke-opacity: 0.3; stroke-width: 0.8; stroke-linecap: square"/>
     </g>
     <g id="line2d_7">
      <defs>
       <path id="m7f4ac0306b" d="M 0 0 
L -3.5 0 
" style="stroke: #000000; stroke-width: 0.8"/>
      </defs>
      <g>
       <use xlink:href="#m7f4ac0306b" x="39.427186" y="336.714894" style="stroke: #000000; stroke-width: 0.8"/>
      </g>
     </g>
     <g id="text_6">
      <text style="font-size: 14px; font-family: 'SimSun', 'DejaVu Sans', sans-serif; text-anchor: end" x="32.427186" y="341.7188" transform="rotate(-0 32.427186 341.7188)">0</text>
     </g>
    </g>
    <g id="ytick_2">
     <g id="line2d_8">
      <path d="M 39.427186 281.914686 
L 427.601099 281.914686 
" clip-path="url(#pcdebeb5e4b)" style="fill: none; stroke: #b0b0b0; stroke-opacity: 0.3; stroke-width: 0.8; stroke-linecap: square"/>
     </g>
     <g id="line2d_9">
      <g>
       <use xlink:href="#m7f4ac0306b" x="39.427186" y="281.914686" style="stroke: #000000; stroke-width: 0.8"/>
      </g>
     </g>
     <g id="text_7">
      <text style="font-size: 14px; font-family: 'SimSun', 'DejaVu Sans', sans-serif; text-anchor: end" x="32.427186" y="286.918592" transform="rotate(-0 32.427186 286.918592)">2</text>
     </g>
    </g>
    <g id="ytick_3">
     <g id="line2d_10">
      <path d="M 39.427186 227.114478 
L 427.601099 227.114478 
" clip-path="url(#pcdebeb5e4b)" style="fill: none; stroke: #b0b0b0; stroke-opacity: 0.3; stroke-width: 0.8; stroke-linecap: square"/>
     </g>
     <g id="line2d_11">
      <g>
       <use xlink:href="#m7f4ac0306b" x="39.427186" y="227.114478" style="stroke: #000000; stroke-width: 0.8"/>
      </g>
     </g>
     <g id="text_8">
      <text style="font-size: 14px; font-family: 'SimSun', 'DejaVu Sans', sans-serif; text-anchor: end" x="32.427186" y="232.118385" transform="rotate(-0 32.427186 232.118385)">4</text>
     </g>
    </g>
    <g id="ytick_4">
     <g id="line2d_12">
      <path d="M 39.427186 172.314271 
L 427.601099 172.314271 
" clip-path="url(#pcdebeb5e4b)" style="fill: none; stroke: #b0b0b0; stroke-opacity: 0.3; stroke-width: 0.8; stroke-linecap: square"/>
     </g>
     <g id="line2d_13">
      <g>
       <use xlink:href="#m7f4ac0306b" x="39.427186" y="172.314271" style="stroke: #000000; stroke-width: 0.8"/>
      </g>
     </g>
     <g id="text_9">
      <text style="font-size: 14px; font-family: 'SimSun', 'DejaVu Sans', sans-serif; text-anchor: end" x="32.427186" y="177.318177" transform="rotate(-0 32.427186 177.318177)">6</text>
     </g>
    </g>
    <g id="ytick_5">
     <g id="line2d_14">
      <path d="M 39.427186 117.514063 
L 427.601099 117.514063 
" clip-path="url(#pcdebeb5e4b)" style="fill: none; stroke: #b0b0b0; stroke-opacity: 0.3; stroke-width: 0.8; stroke-linecap: square"/>
     </g>
     <g id="line2d_15">
      <g>
       <use xlink:href="#m7f4ac0306b" x="39.427186" y="117.514063" style="stroke: #000000; stroke-width: 0.8"/>
      </g>
     </g>
     <g id="text_10">
      <text style="font-size: 14px; font-family: 'SimSun', 'DejaVu Sans', sans-serif; text-anchor: end" x="32.427186" y="122.51797" transform="rotate(-0 32.427186 122.51797)">8</text>
     </g>
    </g>
    <g id="text_11">
     <text style="font-weight: 700; font-size: 14px; font-family: 'SimSun', 'DejaVu Sans', sans-serif; text-anchor: middle" x="19.622498" y="218.757447" transform="rotate(-90 19.622498 218.757447)">指标值</text>
    </g>
   </g>
   <g id="patch_28">
    <path d="M 39.427186 336.714894 
L 39.427186 100.8 
" style="fill: none; stroke: #000000; stroke-width: 0.8; stroke-linejoin: miter; stroke-linecap: square"/>
   </g>
   <g id="patch_29">
    <path d="M 427.601099 336.714894 
L 427.601099 100.8 
" style="fill: none; stroke: #000000; stroke-width: 0.8; stroke-linejoin: miter; stroke-linecap: square"/>
   </g>
   <g id="patch_30">
    <path d="M 39.427186 336.714894 
L 427.601099 336.714894 
" style="fill: none; stroke: #000000; stroke-width: 0.8; stroke-linejoin: miter; stroke-linecap: square"/>
   </g>
   <g id="patch_31">
    <path d="M 39.427186 100.8 
L 427.601099 100.8 
" style="fill: none; stroke: #000000; stroke-width: 0.8; stroke-linejoin: miter; stroke-linecap: square"/>
   </g>
   <g id="text_12">
    <text style="font-weight: 700; font-size: 12px; font-family: 'SimSun', 'DejaVu Sans', sans-serif" transform="translate(173.514142 81.721875)">(a) 关键性能指标对比</text>
    <text style="font-weight: 700; font-size: 12px; font-family: 'SimSun', 'DejaVu Sans', sans-serif" transform="translate(89.514142 94.8)">(检测延迟、超调量、稳态误差、响应时间、假阳性率)</text>
   </g>
   <g id="legend_1">
    <g id="patch_32">
     <path d="M 338.801099 191.025 
L 419.201099 191.025 
Q 421.601099 191.025 421.601099 188.625 
L 421.601099 109.2 
Q 421.601099 106.8 419.201099 106.8 
L 338.801099 106.8 
Q 336.401099 106.8 336.401099 109.2 
L 336.401099 188.625 
Q 336.401099 191.025 338.801099 191.025 
z
" style="fill: #ffffff; opacity: 0.8; stroke: #cccccc; stroke-linejoin: miter"/>
    </g>
    <g id="patch_33">
     <path d="M 341.201099 120.178125 
L 365.201099 120.178125 
L 365.201099 111.778125 
L 341.201099 111.778125 
z
" style="fill: #95a5a6; opacity: 0.85; stroke: #000000; stroke-linejoin: miter"/>
    </g>
    <g id="text_13">
     <text style="font-size: 12px; font-family: 'SimSun', 'DejaVu Sans', sans-serif; text-anchor: start" x="374.801099" y="120.178125" transform="rotate(-0 374.801099 120.178125)">PID</text>
    </g>
    <g id="patch_34">
     <path d="M 341.201099 136.303125 
L 365.201099 136.303125 
L 365.201099 127.903125 
L 341.201099 127.903125 
z
" style="fill: #3498db; opacity: 0.85; stroke: #000000; stroke-linejoin: miter"/>
    </g>
    <g id="text_14">
     <text style="font-size: 12px; font-family: 'SimSun', 'DejaVu Sans', sans-serif; text-anchor: start" x="374.801099" y="136.303125" transform="rotate(-0 374.801099 136.303125)">DQN</text>
    </g>
    <g id="patch_35">
     <path d="M 341.201099 152.428125 
L 365.201099 152.428125 
L 365.201099 144.028125 
L 341.201099 144.028125 
z
" style="fill: #e74c3c; opacity: 0.85; stroke: #000000; stroke-linejoin: miter"/>
    </g>
    <g id="text_15">
     <text style="font-size: 12px; font-family: 'SimSun', 'DejaVu Sans', sans-serif; text-anchor: start" x="374.801099" y="152.428125" transform="rotate(-0 374.801099 152.428125)">SAC</text>
    </g>
    <g id="patch_36">
     <path d="M 341.201099 168.553125 
L 365.201099 168.553125 
L 365.201099 160.153125 
L 341.201099 160.153125 
z
" style="fill: #2ecc71; opacity: 0.85; stroke: #000000; stroke-width: 2; stroke-linejoin: miter"/>
    </g>
    <g id="text_16">
     <text style="font-size: 12px; font-family: 'SimSun', 'DejaVu Sans', sans-serif; text-anchor: start" x="374.801099" y="168.553125" transform="rotate(-0 374.801099 168.553125)">TD-MPC2</text>
    </g>
    <g id="patch_37">
     <path d="M 341.201099 184.678125 
L 365.201099 184.678125 
L 365.201099 176.278125 
L 341.201099 176.278125 
z
" style="fill: #f39c12; opacity: 0.85; stroke: #000000; stroke-linejoin: miter"/>
    </g>
    <g id="text_17">
     <text style="font-size: 12px; font-family: 'SimSun', 'DejaVu Sans', sans-serif; text-anchor: start" x="374.801099" y="184.678125" transform="rotate(-0 374.801099 184.678125)">DPMD</text>
    </g>
   </g>
  </g>
  <g id="axes_2">
   <g id="patch_38">
    <path d="M 544.053273 336.714894 
L 932.227186 336.714894 
L 932.227186 100.8 
L 544.053273 100.8 
z
" style="fill: #ffffff"/>
   </g>
   <g id="patch_39">
    <path d="M 561.697541 336.714894 
L 620.511771 336.714894 
L 620.511771 335.535319 
L 561.697541 335.535319 
z
" clip-path="url(#p91f8e8b19f)" style="fill: #95a5a6; opacity: 0.85; stroke: #000000; stroke-linejoin: miter"/>
   </g>
   <g id="patch_40">
    <path d="M 635.215328 336.714894 
L 694.029557 336.714894 
L 694.029557 171.574468 
L 635.215328 171.574468 
z
" clip-path="url(#p91f8e8b19f)" style="fill: #3498db; opacity: 0.85; stroke: #000000; stroke-linejoin: miter"/>
   </g>
   <g id="patch_41">
    <path d="M 708.733114 336.714894 
L 767.547344 336.714894 
L 767.547344 128.166128 
L 708.733114 128.166128 
z
" clip-path="url(#p91f8e8b19f)" style="fill: #e74c3c; opacity: 0.85; stroke: #000000; stroke-linejoin: miter"/>
   </g>
   <g id="patch_42">
    <path d="M 782.250901 336.714894 
L 841.06513 336.714894 
L 841.06513 125.099234 
L 782.250901 125.099234 
z
" clip-path="url(#p91f8e8b19f)" style="fill: #2ecc71; opacity: 0.85; stroke: #2ecc71; stroke-width: 3; stroke-linejoin: miter"/>
   </g>
   <g id="patch_43">
    <path d="M 855.768688 336.714894 
L 914.582917 336.714894 
L 914.582917 132.884426 
L 855.768688 132.884426 
z
" clip-path="url(#p91f8e8b19f)" style="fill: #f39c12; opacity: 0.85; stroke: #000000; stroke-linejoin: miter"/>
   </g>
   <g id="matplotlib.axis_3">
    <g id="xtick_6">
     <g id="line2d_16">
      <g>
       <use xlink:href="#m654377e6a8" x="591.104656" y="336.714894" style="stroke: #000000; stroke-width: 0.8"/>
      </g>
     </g>
     <g id="text_18">
      <text style="font-size: 14px; font-family: 'SimSun', 'DejaVu Sans', sans-serif; text-anchor: middle" x="591.104656" y="353.722706" transform="rotate(-0 591.104656 353.722706)">PID</text>
     </g>
    </g>
    <g id="xtick_7">
     <g id="line2d_17">
      <g>
       <use xlink:href="#m654377e6a8" x="664.622442" y="336.714894" style="stroke: #000000; stroke-width: 0.8"/>
      </g>
     </g>
     <g id="text_19">
      <text style="font-size: 14px; font-family: 'SimSun', 'DejaVu Sans', sans-serif; text-anchor: middle" x="664.622442" y="353.722706" transform="rotate(-0 664.622442 353.722706)">DQN</text>
     </g>
    </g>
    <g id="xtick_8">
     <g id="line2d_18">
      <g>
       <use xlink:href="#m654377e6a8" x="738.140229" y="336.714894" style="stroke: #000000; stroke-width: 0.8"/>
      </g>
     </g>
     <g id="text_20">
      <text style="font-size: 14px; font-family: 'SimSun', 'DejaVu Sans', sans-serif; text-anchor: middle" x="738.140229" y="353.722706" transform="rotate(-0 738.140229 353.722706)">SAC</text>
     </g>
    </g>
    <g id="xtick_9">
     <g id="line2d_19">
      <g>
       <use xlink:href="#m654377e6a8" x="811.658016" y="336.714894" style="stroke: #000000; stroke-width: 0.8"/>
      </g>
     </g>
     <g id="text_21">
      <text style="font-size: 14px; font-family: 'SimSun', 'DejaVu Sans', sans-serif; text-anchor: middle" x="811.658016" y="353.722706" transform="rotate(-0 811.658016 353.722706)">TD-MPC2</text>
     </g>
    </g>
    <g id="xtick_10">
     <g id="line2d_20">
      <g>
       <use xlink:href="#m654377e6a8" x="885.175802" y="336.714894" style="stroke: #000000; stroke-width: 0.8"/>
      </g>
     </g>
     <g id="text_22">
      <text style="font-size: 14px; font-family: 'SimSun', 'DejaVu Sans', sans-serif; text-anchor: middle" x="885.175802" y="353.722706" transform="rotate(-0 885.175802 353.722706)">DPMD</text>
     </g>
    </g>
   </g>
   <g id="matplotlib.axis_4">
    <g id="ytick_6">
     <g id="line2d_21">
      <path d="M 544.053273 336.714894 
L 932.227186 336.714894 
" clip-path="url(#p91f8e8b19f)" style="fill: none; stroke: #b0b0b0; stroke-opacity: 0.3; stroke-width: 0.8; stroke-linecap: square"/>
     </g>
     <g id="line2d_22">
      <g>
       <use xlink:href="#m7f4ac0306b" x="544.053273" y="336.714894" style="stroke: #000000; stroke-width: 0.8"/>
      </g>
     </g>
     <g id="text_23">
      <text style="font-size: 14px; font-family: 'SimSun', 'DejaVu Sans', sans-serif; text-anchor: end" x="537.053273" y="341.7188" transform="rotate(-0 537.053273 341.7188)">0</text>
     </g>
    </g>
    <g id="ytick_7">
     <g id="line2d_23">
      <path d="M 544.053273 289.531915 
L 932.227186 289.531915 
" clip-path="url(#p91f8e8b19f)" style="fill: none; stroke: #b0b0b0; stroke-opacity: 0.3; stroke-width: 0.8; stroke-linecap: square"/>
     </g>
     <g id="line2d_24">
      <g>
       <use xlink:href="#m7f4ac0306b" x="544.053273" y="289.531915" style="stroke: #000000; stroke-width: 0.8"/>
      </g>
     </g>
     <g id="text_24">
      <text style="font-size: 14px; font-family: 'SimSun', 'DejaVu Sans', sans-serif; text-anchor: end" x="537.053273" y="294.535821" transform="rotate(-0 537.053273 294.535821)">20</text>
     </g>
    </g>
    <g id="ytick_8">
     <g id="line2d_25">
      <path d="M 544.053273 242.348936 
L 932.227186 242.348936 
" clip-path="url(#p91f8e8b19f)" style="fill: none; stroke: #b0b0b0; stroke-opacity: 0.3; stroke-width: 0.8; stroke-linecap: square"/>
     </g>
     <g id="line2d_26">
      <g>
       <use xlink:href="#m7f4ac0306b" x="544.053273" y="242.348936" style="stroke: #000000; stroke-width: 0.8"/>
      </g>
     </g>
     <g id="text_25">
      <text style="font-size: 14px; font-family: 'SimSun', 'DejaVu Sans', sans-serif; text-anchor: end" x="537.053273" y="247.352842" transform="rotate(-0 537.053273 247.352842)">40</text>
     </g>
    </g>
    <g id="ytick_9">
     <g id="line2d_27">
      <path d="M 544.053273 195.165957 
L 932.227186 195.165957 
" clip-path="url(#p91f8e8b19f)" style="fill: none; stroke: #b0b0b0; stroke-opacity: 0.3; stroke-width: 0.8; stroke-linecap: square"/>
     </g>
     <g id="line2d_28">
      <g>
       <use xlink:href="#m7f4ac0306b" x="544.053273" y="195.165957" style="stroke: #000000; stroke-width: 0.8"/>
      </g>
     </g>
     <g id="text_26">
      <text style="font-size: 14px; font-family: 'SimSun', 'DejaVu Sans', sans-serif; text-anchor: end" x="537.053273" y="200.169864" transform="rotate(-0 537.053273 200.169864)">60</text>
     </g>
    </g>
    <g id="ytick_10">
     <g id="line2d_29">
      <path d="M 544.053273 147.982979 
L 932.227186 147.982979 
" clip-path="url(#p91f8e8b19f)" style="fill: none; stroke: #b0b0b0; stroke-opacity: 0.3; stroke-width: 0.8; stroke-linecap: square"/>
     </g>
     <g id="line2d_30">
      <g>
       <use xlink:href="#m7f4ac0306b" x="544.053273" y="147.982979" style="stroke: #000000; stroke-width: 0.8"/>
      </g>
     </g>
     <g id="text_27">
      <text style="font-size: 14px; font-family: 'SimSun', 'DejaVu Sans', sans-serif; text-anchor: end" x="537.053273" y="152.986885" transform="rotate(-0 537.053273 152.986885)">80</text>
     </g>
    </g>
    <g id="ytick_11">
     <g id="line2d_31">
      <path d="M 544.053273 100.8 
L 932.227186 100.8 
" clip-path="url(#p91f8e8b19f)" style="fill: none; stroke: #b0b0b0; stroke-opacity: 0.3; stroke-width: 0.8; stroke-linecap: square"/>
     </g>
     <g id="line2d_32">
      <g>
       <use xlink:href="#m7f4ac0306b" x="544.053273" y="100.8" style="stroke: #000000; stroke-width: 0.8"/>
      </g>
     </g>
     <g id="text_28">
      <text style="font-size: 14px; font-family: 'SimSun', 'DejaVu Sans', sans-serif; text-anchor: end" x="537.053273" y="105.803906" transform="rotate(-0 537.053273 105.803906)">100</text>
     </g>
    </g>
    <g id="text_29">
     <text style="font-weight: 700; font-size: 14px; font-family: 'SimSun', 'DejaVu Sans', sans-serif; text-anchor: middle" x="510.248585" y="218.757447" transform="rotate(-90 510.248585 218.757447)">Pmax控制达标率 (%)</text>
    </g>
   </g>
   <g id="line2d_33">
    <path d="M 544.053273 124.391489 
L 932.227186 124.391489 
" clip-path="url(#p91f8e8b19f)" style="fill: none; stroke-dasharray: 7.4,3.2; stroke-dashoffset: 0; stroke: #ff0000; stroke-opacity: 0.6; stroke-width: 2"/>
   </g>
   <g id="patch_44">
    <path d="M 544.053273 336.714894 
L 544.053273 100.8 
" style="fill: none; stroke: #000000; stroke-width: 0.8; stroke-linejoin: miter; stroke-linecap: square"/>
   </g>
   <g id="patch_45">
    <path d="M 932.227186 336.714894 
L 932.227186 100.8 
" style="fill: none; stroke: #000000; stroke-width: 0.8; stroke-linejoin: miter; stroke-linecap: square"/>
   </g>
   <g id="patch_46">
    <path d="M 544.053273 336.714894 
L 932.227186 336.714894 
" style="fill: none; stroke: #000000; stroke-width: 0.8; stroke-linejoin: miter; stroke-linecap: square"/>
   </g>
   <g id="patch_47">
    <path d="M 544.053273 100.8 
L 932.227186 100.8 
" style="fill: none; stroke: #000000; stroke-width: 0.8; stroke-linejoin: miter; stroke-linecap: square"/>
   </g>
   <g id="text_30">
    <text style="font-weight: 700; font-size: 12px; font-family: 'SimSun', 'DejaVu Sans', sans-serif; text-anchor: middle" x="591.104656" y="331.629295" transform="rotate(-0 591.104656 331.629295)">0.5%</text>
   </g>
   <g id="text_31">
    <text style="font-weight: 700; font-size: 12px; font-family: 'SimSun', 'DejaVu Sans', sans-serif; text-anchor: middle" x="664.622442" y="167.668444" transform="rotate(-0 664.622442 167.668444)">70.0%</text>
   </g>
   <g id="text_32">
    <text style="font-weight: 700; font-size: 12px; font-family: 'SimSun', 'DejaVu Sans', sans-serif; text-anchor: middle" x="738.140229" y="124.260104" transform="rotate(-0 738.140229 124.260104)">88.4%</text>
   </g>
   <g id="text_33">
    <text style="font-weight: 700; font-size: 12px; font-family: 'SimSun', 'DejaVu Sans', sans-serif; text-anchor: middle" x="811.658016" y="121.19321" transform="rotate(-0 811.658016 121.19321)">89.7%</text>
   </g>
   <g id="text_34">
    <text style="font-weight: 700; font-size: 12px; font-family: 'SimSun', 'DejaVu Sans', sans-serif; text-anchor: middle" x="885.175802" y="128.978402" transform="rotate(-0 885.175802 128.978402)">86.4%</text>
   </g>
   <g id="text_35">
    <text style="font-weight: 700; font-size: 10px; font-family: 'SimSun', 'DejaVu Sans', sans-serif; text-anchor: middle; fill: #2ecc71" x="811.658016" y="118.021787" transform="rotate(-0 811.658016 118.021787)">★ 最佳</text>
   </g>
   <g id="text_36">
    <text style="font-weight: 700; font-size: 12px; font-family: 'SimSun', 'DejaVu Sans', sans-serif; text-anchor: middle" x="738.140229" y="94.8" transform="rotate(-0 738.140229 94.8)">(b) 五种方法达标率对比</text>
   </g>
   <g id="legend_2">
    <g id="patch_48">
     <path d="M 552.453273 127.4625 
L 644.853273 127.4625 
Q 647.253273 127.4625 647.253273 125.0625 
L 647.253273 109.2 
Q 647.253273 106.8 644.853273 106.8 
L 552.453273 106.8 
Q 550.053273 106.8 550.053273 109.2 
L 550.053273 125.0625 
Q 550.053273 127.4625 552.453273 127.4625 
z
" style="fill: #ffffff; opacity: 0.8; stroke: #cccccc; stroke-linejoin: miter"/>
    </g>
    <g id="line2d_34">
     <path d="M 554.853273 116.915625 
L 566.853273 116.915625 
L 578.853273 116.915625 
" style="fill: none; stroke-dasharray: 7.4,3.2; stroke-dashoffset: 0; stroke: #ff0000; stroke-opacity: 0.6; stroke-width: 2"/>
    </g>
    <g id="text_37">
     <text style="font-size: 12px; font-family: 'SimSun', 'DejaVu Sans', sans-serif; text-anchor: start" x="588.453273" y="121.115625" transform="rotate(-0 588.453273 121.115625)">90%目标线</text>
    </g>
   </g>
  </g>
  <g id="axes_3">
   <g id="patch_49">
    <path d="M 351.471589 537.242553 
C 351.471589 521.752523 348.420391 506.413114 342.492613 492.102193 
C 336.564835 477.791271 327.875758 464.787148 316.922653 453.834043 
C 305.969547 442.880937 292.965424 434.19186 278.654503 428.264082 
C 264.343581 422.336305 249.004172 419.285106 233.514142 419.285106 
C 218.024112 419.285106 202.684703 422.336305 188.373781 428.264082 
C 174.06286 434.19186 161.058737 442.880937 150.105632 453.834043 
C 139.152526 464.787148 130.463449 477.791271 124.535671 492.102193 
C 118.607893 506.413114 115.556695 521.752523 115.556695 537.242553 
C 115.556695 552.732583 118.607893 568.071992 124.535671 582.382914 
C 130.463449 596.693835 139.152526 609.697958 150.105632 620.651064 
C 161.058737 631.604169 174.06286 640.293246 188.373781 646.221024 
C 202.684703 652.148802 218.024112 655.2 233.514142 655.2 
C 249.004172 655.2 264.343581 652.148802 278.654503 646.221024 
C 292.965424 640.293246 305.969547 631.604169 316.922653 620.651064 
C 327.875758 609.697958 336.564835 596.693835 342.492613 582.382914 
C 348.420391 568.071992 351.471589 552.732583 351.471589 537.242553 
M 233.514142 537.242553 
C 233.514142 537.242553 233.514142 537.242553 233.514142 537.242553 
C 233.514142 537.242553 233.514142 537.242553 233.514142 537.242553 
C 233.514142 537.242553 233.514142 537.242553 233.514142 537.242553 
C 233.514142 537.242553 233.514142 537.242553 233.514142 537.242553 
C 233.514142 537.242553 233.514142 537.242553 233.514142 537.242553 
C 233.514142 537.242553 233.514142 537.242553 233.514142 537.242553 
C 233.514142 537.242553 233.514142 537.242553 233.514142 537.242553 
C 233.514142 537.242553 233.514142 537.242553 233.514142 537.242553 
C 233.514142 537.242553 233.514142 537.242553 233.514142 537.242553 
C 233.514142 537.242553 233.514142 537.242553 233.514142 537.242553 
C 233.514142 537.242553 233.514142 537.242553 233.514142 537.242553 
C 233.514142 537.242553 233.514142 537.242553 233.514142 537.242553 
C 233.514142 537.242553 233.514142 537.242553 233.514142 537.242553 
C 233.514142 537.242553 233.514142 537.242553 233.514142 537.242553 
C 233.514142 537.242553 233.514142 537.242553 233.514142 537.242553 
C 233.514142 537.242553 233.514142 537.242553 233.514142 537.242553 
z
" style="fill: #ffffff"/>
   </g>
   <g id="patch_50">
    <path d="M 234.075978 537.242553 
L 234.671588 533.680302 
L 142.607184 471.194782 
L 142.667789 603.246292 
L 234.960949 541.695367 
z
" clip-path="url(#p327998d3a3)" style="fill: #95a5a6; opacity: 0.15; stroke: #95a5a6; stroke-linejoin: miter"/>
   </g>
   <g id="patch_51">
    <path d="M 312.171168 537.242553 
L 261.292837 451.748522 
L 210.787403 520.73061 
L 154.728112 594.483955 
L 261.003475 621.846021 
z
" clip-path="url(#p327998d3a3)" style="fill: #3498db; opacity: 0.15; stroke: #3498db; stroke-linejoin: miter"/>
   </g>
   <g id="patch_52">
    <path d="M 332.846729 537.242553 
L 266.501342 435.718392 
L 188.060663 504.218668 
L 182.000199 574.669623 
L 263.029005 628.079961 
z
" clip-path="url(#p327998d3a3)" style="fill: #e74c3c; opacity: 0.15; stroke: #e74c3c; stroke-linejoin: miter"/>
   </g>
   <g id="patch_53">
    <path d="M 334.307502 537.242553 
L 267.658787 432.15614 
L 178.969967 497.613891 
L 221.393214 546.048923 
L 264.765173 633.423338 
z
" clip-path="url(#p327998d3a3)" style="fill: #2ecc71; opacity: 0.3; stroke: #2ecc71; stroke-linejoin: miter"/>
   </g>
   <g id="patch_54">
    <path d="M 330.599385 537.242553 
L 265.69113 438.211968 
L 197.151359 510.823445 
L 194.121127 565.863254 
L 262.450282 626.298835 
z
" clip-path="url(#p327998d3a3)" style="fill: #f39c12; opacity: 0.15; stroke: #f39c12; stroke-linejoin: miter"/>
   </g>
   <g id="matplotlib.axis_5">
    <g id="xtick_11">
     <g id="line2d_35">
      <path d="M 233.514142 537.242553 
L 351.471589 537.242553 
" clip-path="url(#p327998d3a3)" style="fill: none; stroke: #b0b0b0; stroke-width: 0.8; stroke-linecap: square"/>
     </g>
     <g id="text_38">
      <text style="font-size: 12px; font-family: 'SimSun', 'DejaVu Sans', sans-serif; text-anchor: middle" x="365.471589" y="541.250366" transform="rotate(-0 365.471589 541.250366)">达标率</text>
     </g>
    </g>
    <g id="xtick_12">
     <g id="line2d_36">
      <path d="M 233.514142 537.242553 
L 269.964998 425.058355 
" clip-path="url(#p327998d3a3)" style="fill: none; stroke: #b0b0b0; stroke-width: 0.8; stroke-linecap: square"/>
     </g>
     <g id="text_39">
      <text style="font-size: 12px; font-family: 'SimSun', 'DejaVu Sans', sans-serif; text-anchor: middle" x="274.291236" y="415.704501" transform="rotate(-0 274.291236 415.704501)">奖励</text>
     </g>
    </g>
    <g id="xtick_13">
     <g id="line2d_37">
      <path d="M 233.514142 537.242553 
L 138.084563 467.908906 
" clip-path="url(#p327998d3a3)" style="fill: none; stroke: #b0b0b0; stroke-width: 0.8; stroke-linecap: square"/>
     </g>
     <g id="text_40">
      <text style="font-size: 12px; font-family: 'SimSun', 'DejaVu Sans', sans-serif; text-anchor: middle" x="126.758325" y="463.687725" transform="rotate(-0 126.758325 463.687725)">收敛速度</text>
     </g>
    </g>
    <g id="xtick_14">
     <g id="line2d_38">
      <path d="M 233.514142 537.242553 
L 138.084563 606.576201 
" clip-path="url(#p327998d3a3)" style="fill: none; stroke: #b0b0b0; stroke-width: 0.8; stroke-linecap: square"/>
     </g>
     <g id="text_41">
      <text style="font-size: 12px; font-family: 'SimSun', 'DejaVu Sans', sans-serif; text-anchor: middle" x="126.758325" y="618.813007" transform="rotate(-0 126.758325 618.813007)">计算效率</text>
     </g>
    </g>
    <g id="xtick_15">
     <g id="line2d_39">
      <path d="M 233.514142 537.242553 
L 269.964998 649.426752 
" clip-path="url(#p327998d3a3)" style="fill: none; stroke: #b0b0b0; stroke-width: 0.8; stroke-linecap: square"/>
     </g>
     <g id="text_42">
      <text style="font-size: 12px; font-family: 'SimSun', 'DejaVu Sans', sans-serif; text-anchor: middle" x="274.291236" y="666.70248" transform="rotate(-0 274.291236 666.70248)">误差控制</text>
     </g>
    </g>
   </g>
   <g id="matplotlib.axis_6">
    <g id="ytick_12">
     <g id="line2d_40">
      <path d="M 255.987578 537.242553 
C 255.987578 534.291369 255.406259 531.368881 254.27689 528.642342 
C 253.14752 525.915803 251.492064 523.438237 249.405261 521.351434 
C 247.318458 519.264632 244.840893 517.609175 242.114354 516.479806 
C 239.387815 515.350436 236.465327 514.769117 233.514142 514.769117 
C 230.562958 514.769117 227.64047 515.350436 224.91393 516.479806 
C 222.187391 517.609175 219.709826 519.264632 217.623023 521.351434 
C 215.536221 523.438237 213.880764 525.915803 212.751395 528.642342 
C 211.622025 531.368881 211.040706 534.291369 211.040706 537.242553 
C 211.040706 540.193738 211.622025 543.116226 212.751395 545.842765 
C 213.880764 548.569304 215.536221 551.04687 217.623023 553.133672 
C 219.709826 555.220475 222.187391 556.875931 224.91393 558.005301 
C 227.64047 559.13467 230.562958 559.715989 233.514142 559.715989 
C 236.465327 559.715989 239.387815 559.13467 242.114354 558.005301 
C 244.840893 556.875931 247.318458 555.220475 249.405261 553.133672 
C 251.492064 551.04687 253.14752 548.569304 254.27689 545.842765 
C 255.406259 543.116226 255.987578 540.193738 255.987578 537.242553 
" clip-path="url(#p327998d3a3)" style="fill: none; stroke: #b0b0b0; stroke-width: 0.8; stroke-linecap: square"/>
     </g>
     <g id="text_43">
      <text style="font-size: 10px; font-family: 'SimSun', 'DejaVu Sans', sans-serif; text-anchor: start" x="254.27689" y="527.353279" transform="rotate(-0 254.27689 527.353279)">0.2</text>
     </g>
    </g>
    <g id="ytick_13">
     <g id="line2d_41">
      <path d="M 278.461014 537.242553 
C 278.461014 531.340184 277.298376 525.495208 275.039637 520.04213 
C 272.780898 514.589052 269.469985 509.633921 265.29638 505.460315 
C 261.122775 501.28671 256.167643 497.975797 250.714565 495.717058 
C 245.261487 493.458319 239.416511 492.295681 233.514142 492.295681 
C 227.611773 492.295681 221.766797 493.458319 216.313719 495.717058 
C 210.860641 497.975797 205.905509 501.28671 201.731904 505.460315 
C 197.558299 509.633921 194.247386 514.589052 191.988647 520.04213 
C 189.729908 525.495208 188.56727 531.340184 188.56727 537.242553 
C 188.56727 543.144922 189.729908 548.989898 191.988647 554.442976 
C 194.247386 559.896054 197.558299 564.851186 201.731904 569.024791 
C 205.905509 573.198396 210.860641 576.509309 216.313719 578.768048 
C 221.766797 581.026787 227.611773 582.189425 233.514142 582.189425 
C 239.416511 582.189425 245.261487 581.026787 250.714565 578.768048 
C 256.167643 576.509309 261.122775 573.198396 265.29638 569.024791 
C 269.469985 564.851186 272.780898 559.896054 275.039637 554.442976 
C 277.298376 548.989898 278.461014 543.144922 278.461014 537.242553 
" clip-path="url(#p327998d3a3)" style="fill: none; stroke: #b0b0b0; stroke-width: 0.8; stroke-linecap: square"/>
     </g>
     <g id="text_44">
      <text style="font-size: 10px; font-family: 'SimSun', 'DejaVu Sans', sans-serif; text-anchor: start" x="275.039637" y="518.753067" transform="rotate(-0 275.039637 518.753067)">0.4</text>
     </g>
    </g>
    <g id="ytick_14">
     <g id="line2d_42">
      <path d="M 300.93445 537.242553 
C 300.93445 528.388999 299.190493 519.621535 295.802385 511.441918 
C 292.414276 503.262301 287.447907 495.829604 281.187499 489.569196 
C 274.927091 483.308789 267.494394 478.342419 259.314777 474.954311 
C 251.13516 471.566202 242.367696 469.822245 233.514142 469.822245 
C 224.660588 469.822245 215.893124 471.566202 207.713507 474.954311 
C 199.53389 478.342419 192.101193 483.308789 185.840785 489.569196 
C 179.580377 495.829604 174.614008 503.262301 171.2259 511.441918 
C 167.837791 519.621535 166.093834 528.388999 166.093834 537.242553 
C 166.093834 546.096107 167.837791 554.863571 171.2259 563.043188 
C 174.614008 571.222805 179.580377 578.655502 185.840785 584.91591 
C 192.101193 591.176318 199.53389 596.142687 207.713507 599.530796 
C 215.893124 602.918904 224.660588 604.662861 233.514142 604.662861 
C 242.367696 604.662861 251.13516 602.918904 259.314777 599.530796 
C 267.494394 596.142687 274.927091 591.176318 281.187499 584.91591 
C 287.447907 578.655502 292.414276 571.222805 295.802385 563.043188 
C 299.190493 554.863571 300.93445 546.096107 300.93445 537.242553 
" clip-path="url(#p327998d3a3)" style="fill: none; stroke: #b0b0b0; stroke-width: 0.8; stroke-linecap: square"/>
     </g>
     <g id="text_45">
      <text style="font-size: 10px; font-family: 'SimSun', 'DejaVu Sans', sans-serif; text-anchor: start" x="295.802385" y="510.152856" transform="rotate(-0 295.802385 510.152856)">0.6</text>
     </g>
    </g>
    <g id="ytick_15">
     <g id="line2d_43">
      <path d="M 323.407886 537.242553 
C 323.407886 525.437815 321.08261 513.747863 316.565132 502.841707 
C 312.047654 491.935551 305.425828 482.025288 297.078618 473.678077 
C 288.731407 465.330867 278.821145 458.709041 267.914988 454.191563 
C 257.008832 449.674086 245.31888 447.348809 233.514142 447.348809 
C 221.709404 447.348809 210.019452 449.674086 199.113296 454.191563 
C 188.20714 458.709041 178.296877 465.330867 169.949666 473.678077 
C 161.602456 482.025288 154.98063 491.935551 150.463152 502.841707 
C 145.945674 513.747863 143.620398 525.437815 143.620398 537.242553 
C 143.620398 549.047291 145.945674 560.737244 150.463152 571.6434 
C 154.98063 582.549556 161.602456 592.459818 169.949666 600.807029 
C 178.296877 609.154239 188.20714 615.776065 199.113296 620.293543 
C 210.019452 624.811021 221.709404 627.136297 233.514142 627.136297 
C 245.31888 627.136297 257.008832 624.811021 267.914988 620.293543 
C 278.821145 615.776065 288.731407 609.154239 297.078618 600.807029 
C 305.425828 592.459818 312.047654 582.549556 316.565132 571.6434 
C 321.08261 560.737244 323.407886 549.047291 323.407886 537.242553 
" clip-path="url(#p327998d3a3)" style="fill: none; stroke: #b0b0b0; stroke-width: 0.8; stroke-linecap: square"/>
     </g>
     <g id="text_46">
      <text style="font-size: 10px; font-family: 'SimSun', 'DejaVu Sans', sans-serif; text-anchor: start" x="316.565132" y="501.552644" transform="rotate(-0 316.565132 501.552644)">0.8</text>
     </g>
    </g>
    <g id="ytick_16">
     <g id="line2d_44">
      <path d="M 345.881322 537.242553 
C 345.881322 522.48663 342.974727 507.87419 337.327879 494.241495 
C 331.681032 480.6088 323.40375 468.220972 312.969737 457.786958 
C 302.535724 447.352945 290.147895 439.075663 276.5152 433.428816 
C 262.882505 427.781969 248.270065 424.875374 233.514142 424.875374 
C 218.758219 424.875374 204.145779 427.781969 190.513084 433.428816 
C 176.880389 439.075663 164.49256 447.352945 154.058547 457.786958 
C 143.624534 468.220972 135.347252 480.6088 129.700405 494.241495 
C 124.053558 507.87419 121.146962 522.48663 121.146962 537.242553 
C 121.146962 551.998476 124.053558 566.610916 129.700405 580.243611 
C 135.347252 593.876306 143.624534 606.264135 154.058547 616.698148 
C 164.49256 627.132161 176.880389 635.409443 190.513084 641.056291 
C 204.145779 646.703138 218.758219 649.609733 233.514142 649.609733 
C 248.270065 649.609733 262.882505 646.703138 276.5152 641.056291 
C 290.147895 635.409443 302.535724 627.132161 312.969737 616.698148 
C 323.40375 606.264135 331.681032 593.876306 337.327879 580.243611 
C 342.974727 566.610916 345.881322 551.998476 345.881322 537.242553 
" clip-path="url(#p327998d3a3)" style="fill: none; stroke: #b0b0b0; stroke-width: 0.8; stroke-linecap: square"/>
     </g>
     <g id="text_47">
      <text style="font-size: 10px; font-family: 'SimSun', 'DejaVu Sans', sans-serif; text-anchor: start" x="337.327879" y="492.952433" transform="rotate(-0 337.327879 492.952433)">1.0</text>
     </g>
    </g>
   </g>
   <g id="line2d_45">
    <path d="M 234.075978 537.242553 
L 234.671588 533.680302 
L 142.607184 471.194782 
L 142.667789 603.246292 
L 234.960949 541.695367 
L 234.075978 537.242553 
" clip-path="url(#p327998d3a3)" style="fill: none; stroke-dasharray: 5.55,2.4; stroke-dashoffset: 0; stroke: #95a5a6; stroke-width: 1.5"/>
   </g>
   <g id="line2d_46">
    <path d="M 312.171168 537.242553 
L 261.292837 451.748522 
L 210.787403 520.73061 
L 154.728112 594.483955 
L 261.003475 621.846021 
L 312.171168 537.242553 
" clip-path="url(#p327998d3a3)" style="fill: none; stroke-dasharray: 5.55,2.4; stroke-dashoffset: 0; stroke: #3498db; stroke-width: 1.5"/>
   </g>
   <g id="line2d_47">
    <path d="M 332.846729 537.242553 
L 266.501342 435.718392 
L 188.060663 504.218668 
L 182.000199 574.669623 
L 263.029005 628.079961 
L 332.846729 537.242553 
" clip-path="url(#p327998d3a3)" style="fill: none; stroke-dasharray: 5.55,2.4; stroke-dashoffset: 0; stroke: #e74c3c; stroke-width: 1.5"/>
   </g>
   <g id="line2d_48">
    <path d="M 334.307502 537.242553 
L 267.658787 432.15614 
L 178.969967 497.613891 
L 221.393214 546.048923 
L 264.765173 633.423338 
L 334.307502 537.242553 
" clip-path="url(#p327998d3a3)" style="fill: none; stroke: #2ecc71; stroke-width: 3; stroke-linecap: square"/>
   </g>
   <g id="line2d_49">
    <path d="M 330.599385 537.242553 
L 265.69113 438.211968 
L 197.151359 510.823445 
L 194.121127 565.863254 
L 262.450282 626.298835 
L 330.599385 537.242553 
" clip-path="url(#p327998d3a3)" style="fill: none; stroke-dasharray: 5.55,2.4; stroke-dashoffset: 0; stroke: #f39c12; stroke-width: 1.5"/>
   </g>
   <g id="patch_55">
    <path d="M 351.471589 537.242553 
C 351.471589 521.752523 348.420391 506.413114 342.492613 492.102193 
C 336.564835 477.791271 327.875758 464.787148 316.922653 453.834043 
C 305.969547 442.880937 292.965424 434.19186 278.654503 428.264082 
C 264.343581 422.336305 249.004172 419.285106 233.514142 419.285106 
C 218.024112 419.285106 202.684703 422.336305 188.373781 428.264082 
C 174.06286 434.19186 161.058737 442.880937 150.105632 453.834043 
C 139.152526 464.787148 130.463449 477.791271 124.535671 492.102193 
C 118.607893 506.413114 115.556695 521.752523 115.556695 537.242553 
C 115.556695 552.732583 118.607893 568.071992 124.535671 582.382914 
C 130.463449 596.693835 139.152526 609.697958 150.105632 620.651064 
C 161.058737 631.604169 174.06286 640.293246 188.373781 646.221024 
C 202.684703 652.148802 218.024112 655.2 233.514142 655.2 
C 249.004172 655.2 264.343581 652.148802 278.654503 646.221024 
C 292.965424 640.293246 305.969547 631.604169 316.922653 620.651064 
C 327.875758 609.697958 336.564835 596.693835 342.492613 582.382914 
C 348.420391 568.071992 351.471589 552.732583 351.471589 537.242553 
" style="fill: none; stroke: #000000; stroke-width: 0.8; stroke-linejoin: miter; stroke-linecap: square"/>
   </g>
   <g id="text_48">
    <text style="font-weight: 700; font-size: 12px; font-family: 'SimSun', 'DejaVu Sans', sans-serif" transform="translate(179.514142 386.375731)">(c) 综合性能雷达图</text>
    <text style="font-weight: 700; font-size: 12px; font-family: 'SimSun', 'DejaVu Sans', sans-serif" transform="translate(197.514142 399.285106)">(越外围越好)</text>
   </g>
   <g id="legend_3">
    <g id="patch_56">
     <path d="M 345.241802 649.2 
L 425.641802 649.2 
Q 428.041802 649.2 428.041802 646.8 
L 428.041802 567.375 
Q 428.041802 564.975 425.641802 564.975 
L 345.241802 564.975 
Q 342.841802 564.975 342.841802 567.375 
L 342.841802 646.8 
Q 342.841802 649.2 345.241802 649.2 
z
" style="fill: #ffffff; opacity: 0.8; stroke: #cccccc; stroke-linejoin: miter"/>
    </g>
    <g id="line2d_50">
     <path d="M 347.641802 574.153125 
L 359.641802 574.153125 
L 371.641802 574.153125 
" style="fill: none; stroke-dasharray: 5.55,2.4; stroke-dashoffset: 0; stroke: #95a5a6; stroke-width: 1.5"/>
    </g>
    <g id="text_49">
     <text style="font-size: 12px; font-family: 'SimSun', 'DejaVu Sans', sans-serif; text-anchor: start" x="381.241802" y="578.353125" transform="rotate(-0 381.241802 578.353125)">PID</text>
    </g>
    <g id="line2d_51">
     <path d="M 347.641802 590.278125 
L 359.641802 590.278125 
L 371.641802 590.278125 
" style="fill: none; stroke-dasharray: 5.55,2.4; stroke-dashoffset: 0; stroke: #3498db; stroke-width: 1.5"/>
    </g>
    <g id="text_50">
     <text style="font-size: 12px; font-family: 'SimSun', 'DejaVu Sans', sans-serif; text-anchor: start" x="381.241802" y="594.478125" transform="rotate(-0 381.241802 594.478125)">DQN</text>
    </g>
    <g id="line2d_52">
     <path d="M 347.641802 606.403125 
L 359.641802 606.403125 
L 371.641802 606.403125 
" style="fill: none; stroke-dasharray: 5.55,2.4; stroke-dashoffset: 0; stroke: #e74c3c; stroke-width: 1.5"/>
    </g>
    <g id="text_51">
     <text style="font-size: 12px; font-family: 'SimSun', 'DejaVu Sans', sans-serif; text-anchor: start" x="381.241802" y="610.603125" transform="rotate(-0 381.241802 610.603125)">SAC</text>
    </g>
    <g id="line2d_53">
     <path d="M 347.641802 622.528125 
L 359.641802 622.528125 
L 371.641802 622.528125 
" style="fill: none; stroke: #2ecc71; stroke-width: 3; stroke-linecap: square"/>
    </g>
    <g id="text_52">
     <text style="font-size: 12px; font-family: 'SimSun', 'DejaVu Sans', sans-serif; text-anchor: start" x="381.241802" y="626.728125" transform="rotate(-0 381.241802 626.728125)">TD-MPC2</text>
    </g>
    <g id="line2d_54">
     <path d="M 347.641802 638.653125 
L 359.641802 638.653125 
L 371.641802 638.653125 
" style="fill: none; stroke-dasharray: 5.55,2.4; stroke-dashoffset: 0; stroke: #f39c12; stroke-width: 1.5"/>
    </g>
    <g id="text_53">
     <text style="font-size: 12px; font-family: 'SimSun', 'DejaVu Sans', sans-serif; text-anchor: start" x="381.241802" y="642.853125" transform="rotate(-0 381.241802 642.853125)">DPMD</text>
    </g>
   </g>
  </g>
  <g id="axes_4">
   <g id="patch_57">
    <path d="M 544.053273 655.2 
L 932.227186 655.2 
L 932.227186 419.285106 
L 544.053273 419.285106 
z
" style="fill: #ffffff"/>
   </g>
   <g id="FillBetweenPolyCollection_1">
    <defs>
     <path id="m44f7a09a6c" d="M 544.053273 -233.246645 
L 544.053273 -215.099345 
L 547.974221 -215.099345 
L 551.89517 -215.099345 
L 555.816118 -215.099345 
L 559.737067 -215.099345 
L 563.658016 -215.099345 
L 567.578964 -215.099345 
L 571.499913 -215.099345 
L 575.420861 -215.099345 
L 579.34181 -215.099345 
L 583.262759 -215.099345 
L 587.183707 -215.099345 
L 591.104656 -215.099345 
L 595.025605 -215.099345 
L 598.946553 -215.099345 
L 602.867502 -215.099345 
L 606.78845 -215.099345 
L 610.709399 -215.099345 
L 614.630348 -215.099345 
L 618.551296 -215.099345 
L 622.472245 -215.099345 
L 626.393193 -215.099345 
L 630.314142 -215.099345 
L 634.235091 -215.099345 
L 638.156039 -215.099345 
L 642.076988 -215.099345 
L 645.997937 -215.099345 
L 649.918885 -215.099345 
L 653.839834 -215.099345 
L 657.760782 -215.099345 
L 661.681731 -215.099345 
L 665.60268 -215.099345 
L 669.523628 -215.099345 
L 673.444577 -215.099345 
L 677.365525 -215.099345 
L 681.286474 -215.099345 
L 685.207423 -215.099345 
L 689.128371 -215.099345 
L 693.04932 -215.099345 
L 696.970269 -215.099345 
L 700.891217 -215.099345 
L 704.812166 -215.099345 
L 708.733114 -215.099345 
L 712.654063 -215.099345 
L 716.575012 -215.099345 
L 720.49596 -215.099345 
L 724.416909 -215.099345 
L 728.337858 -215.099345 
L 732.258806 -215.099345 
L 736.179755 -215.099345 
L 740.100703 -215.099345 
L 744.021652 -215.099345 
L 747.942601 -215.099345 
L 751.863549 -215.099345 
L 755.784498 -215.099345 
L 759.705446 -215.099345 
L 763.626395 -215.099345 
L 767.547344 -215.099345 
L 771.468292 -215.099345 
L 775.389241 -215.099345 
L 779.31019 -215.099345 
L 783.231138 -215.099345 
L 787.152087 -215.099345 
L 791.073035 -215.099345 
L 794.993984 -215.099345 
L 798.914933 -215.099345 
L 802.835881 -215.099345 
L 806.75683 -215.099345 
L 810.677778 -215.099345 
L 814.598727 -215.099345 
L 818.519676 -215.099345 
L 822.440624 -215.099345 
L 826.361573 -215.099345 
L 830.282522 -215.099345 
L 834.20347 -215.099345 
L 838.124419 -215.099345 
L 842.045367 -215.099345 
L 845.966316 -215.099345 
L 849.887265 -215.099345 
L 853.808213 -215.099345 
L 857.729162 -215.099345 
L 861.65011 -215.099345 
L 865.571059 -215.099345 
L 869.492008 -215.099345 
L 873.412956 -215.099345 
L 877.333905 -215.099345 
L 881.254854 -215.099345 
L 885.175802 -215.099345 
L 889.096751 -215.099345 
L 893.017699 -215.099345 
L 896.938648 -215.099345 
L 900.859597 -215.099345 
L 904.780545 -215.099345 
L 908.701494 -215.099345 
L 912.622442 -215.099345 
L 916.543391 -215.099345 
L 920.46434 -215.099345 
L 924.385288 -215.099345 
L 928.306237 -215.099345 
L 932.227186 -215.099345 
L 932.227186 -233.246645 
L 932.227186 -233.246645 
L 928.306237 -233.246645 
L 924.385288 -233.246645 
L 920.46434 -233.246645 
L 916.543391 -233.246645 
L 912.622442 -233.246645 
L 908.701494 -233.246645 
L 904.780545 -233.246645 
L 900.859597 -233.246645 
L 896.938648 -233.246645 
L 893.017699 -233.246645 
L 889.096751 -233.246645 
L 885.175802 -233.246645 
L 881.254854 -233.246645 
L 877.333905 -233.246645 
L 873.412956 -233.246645 
L 869.492008 -233.246645 
L 865.571059 -233.246645 
L 861.65011 -233.246645 
L 857.729162 -233.246645 
L 853.808213 -233.246645 
L 849.887265 -233.246645 
L 845.966316 -233.246645 
L 842.045367 -233.246645 
L 838.124419 -233.246645 
L 834.20347 -233.246645 
L 830.282522 -233.246645 
L 826.361573 -233.246645 
L 822.440624 -233.246645 
L 818.519676 -233.246645 
L 814.598727 -233.246645 
L 810.677778 -233.246645 
L 806.75683 -233.246645 
L 802.835881 -233.246645 
L 798.914933 -233.246645 
L 794.993984 -233.246645 
L 791.073035 -233.246645 
L 787.152087 -233.246645 
L 783.231138 -233.246645 
L 779.31019 -233.246645 
L 775.389241 -233.246645 
L 771.468292 -233.246645 
L 767.547344 -233.246645 
L 763.626395 -233.246645 
L 759.705446 -233.246645 
L 755.784498 -233.246645 
L 751.863549 -233.246645 
L 747.942601 -233.246645 
L 744.021652 -233.246645 
L 740.100703 -233.246645 
L 736.179755 -233.246645 
L 732.258806 -233.246645 
L 728.337858 -233.246645 
L 724.416909 -233.246645 
L 720.49596 -233.246645 
L 716.575012 -233.246645 
L 712.654063 -233.246645 
L 708.733114 -233.246645 
L 704.812166 -233.246645 
L 700.891217 -233.246645 
L 696.970269 -233.246645 
L 693.04932 -233.246645 
L 689.128371 -233.246645 
L 685.207423 -233.246645 
L 681.286474 -233.246645 
L 677.365525 -233.246645 
L 673.444577 -233.246645 
L 669.523628 -233.246645 
L 665.60268 -233.246645 
L 661.681731 -233.246645 
L 657.760782 -233.246645 
L 653.839834 -233.246645 
L 649.918885 -233.246645 
L 645.997937 -233.246645 
L 642.076988 -233.246645 
L 638.156039 -233.246645 
L 634.235091 -233.246645 
L 630.314142 -233.246645 
L 626.393193 -233.246645 
L 622.472245 -233.246645 
L 618.551296 -233.246645 
L 614.630348 -233.246645 
L 610.709399 -233.246645 
L 606.78845 -233.246645 
L 602.867502 -233.246645 
L 598.946553 -233.246645 
L 595.025605 -233.246645 
L 591.104656 -233.246645 
L 587.183707 -233.246645 
L 583.262759 -233.246645 
L 579.34181 -233.246645 
L 575.420861 -233.246645 
L 571.499913 -233.246645 
L 567.578964 -233.246645 
L 563.658016 -233.246645 
L 559.737067 -233.246645 
L 555.816118 -233.246645 
L 551.89517 -233.246645 
L 547.974221 -233.246645 
L 544.053273 -233.246645 
z
" style="stroke: #008000; stroke-opacity: 0.1"/>
    </defs>
    <g clip-path="url(#p97872d448d)">
     <use xlink:href="#m44f7a09a6c" x="0" y="697.9" style="fill: #008000; fill-opacity: 0.1; stroke: #008000; stroke-opacity: 0.1"/>
    </g>
   </g>
   <g id="matplotlib.axis_7">
    <g id="xtick_16">
     <g id="line2d_55">
      <path d="M 544.053273 655.2 
L 544.053273 419.285106 
" clip-path="url(#p97872d448d)" style="fill: none; stroke: #b0b0b0; stroke-opacity: 0.3; stroke-width: 0.8; stroke-linecap: square"/>
     </g>
     <g id="line2d_56">
      <g>
       <use xlink:href="#m654377e6a8" x="544.053273" y="655.2" style="stroke: #000000; stroke-width: 0.8"/>
      </g>
     </g>
     <g id="text_54">
      <text style="font-size: 14px; font-family: 'SimSun', 'DejaVu Sans', sans-serif; text-anchor: middle" x="544.053273" y="672.207812" transform="rotate(-0 544.053273 672.207812)">0</text>
     </g>
    </g>
    <g id="xtick_17">
     <g id="line2d_57">
      <path d="M 621.688055 655.2 
L 621.688055 419.285106 
" clip-path="url(#p97872d448d)" style="fill: none; stroke: #b0b0b0; stroke-opacity: 0.3; stroke-width: 0.8; stroke-linecap: square"/>
     </g>
     <g id="line2d_58">
      <g>
       <use xlink:href="#m654377e6a8" x="621.688055" y="655.2" style="stroke: #000000; stroke-width: 0.8"/>
      </g>
     </g>
     <g id="text_55">
      <text style="font-size: 14px; font-family: 'SimSun', 'DejaVu Sans', sans-serif; text-anchor: middle" x="621.688055" y="672.207812" transform="rotate(-0 621.688055 672.207812)">2</text>
     </g>
    </g>
    <g id="xtick_18">
     <g id="line2d_59">
      <path d="M 699.322838 655.2 
L 699.322838 419.285106 
" clip-path="url(#p97872d448d)" style="fill: none; stroke: #b0b0b0; stroke-opacity: 0.3; stroke-width: 0.8; stroke-linecap: square"/>
     </g>
     <g id="line2d_60">
      <g>
       <use xlink:href="#m654377e6a8" x="699.322838" y="655.2" style="stroke: #000000; stroke-width: 0.8"/>
      </g>
     </g>
     <g id="text_56">
      <text style="font-size: 14px; font-family: 'SimSun', 'DejaVu Sans', sans-serif; text-anchor: middle" x="699.322838" y="672.207812" transform="rotate(-0 699.322838 672.207812)">4</text>
     </g>
    </g>
    <g id="xtick_19">
     <g id="line2d_61">
      <path d="M 776.95762 655.2 
L 776.95762 419.285106 
" clip-path="url(#p97872d448d)" style="fill: none; stroke: #b0b0b0; stroke-opacity: 0.3; stroke-width: 0.8; stroke-linecap: square"/>
     </g>
     <g id="line2d_62">
      <g>
       <use xlink:href="#m654377e6a8" x="776.95762" y="655.2" style="stroke: #000000; stroke-width: 0.8"/>
      </g>
     </g>
     <g id="text_57">
      <text style="font-size: 14px; font-family: 'SimSun', 'DejaVu Sans', sans-serif; text-anchor: middle" x="776.95762" y="672.207812" transform="rotate(-0 776.95762 672.207812)">6</text>
     </g>
    </g>
    <g id="xtick_20">
     <g id="line2d_63">
      <path d="M 854.592403 655.2 
L 854.592403 419.285106 
" clip-path="url(#p97872d448d)" style="fill: none; stroke: #b0b0b0; stroke-opacity: 0.3; stroke-width: 0.8; stroke-linecap: square"/>
     </g>
     <g id="line2d_64">
      <g>
       <use xlink:href="#m654377e6a8" x="854.592403" y="655.2" style="stroke: #000000; stroke-width: 0.8"/>
      </g>
     </g>
     <g id="text_58">
      <text style="font-size: 14px; font-family: 'SimSun', 'DejaVu Sans', sans-serif; text-anchor: middle" x="854.592403" y="672.207812" transform="rotate(-0 854.592403 672.207812)">8</text>
     </g>
    </g>
    <g id="xtick_21">
     <g id="line2d_65">
      <path d="M 932.227186 655.2 
L 932.227186 419.285106 
" clip-path="url(#p97872d448d)" style="fill: none; stroke: #b0b0b0; stroke-opacity: 0.3; stroke-width: 0.8; stroke-linecap: square"/>
     </g>
     <g id="line2d_66">
      <g>
       <use xlink:href="#m654377e6a8" x="932.227186" y="655.2" style="stroke: #000000; stroke-width: 0.8"/>
      </g>
     </g>
     <g id="text_59">
      <text style="font-size: 14px; font-family: 'SimSun', 'DejaVu Sans', sans-serif; text-anchor: middle" x="932.227186" y="672.207812" transform="rotate(-0 932.227186 672.207812)">10</text>
     </g>
    </g>
    <g id="text_60">
     <text style="font-size: 14px; font-family: 'SimSun', 'DejaVu Sans', sans-serif; text-anchor: middle" x="738.140229" y="688.895312" transform="rotate(-0 738.140229 688.895312)">时间 (s)</text>
    </g>
   </g>
   <g id="matplotlib.axis_8">
    <g id="ytick_17">
     <g id="line2d_67">
      <path d="M 544.053273 655.2 
L 932.227186 655.2 
" clip-path="url(#p97872d448d)" style="fill: none; stroke: #b0b0b0; stroke-opacity: 0.3; stroke-width: 0.8; stroke-linecap: square"/>
     </g>
     <g id="line2d_68">
      <g>
       <use xlink:href="#m7f4ac0306b" x="544.053273" y="655.2" style="stroke: #000000; stroke-width: 0.8"/>
      </g>
     </g>
     <g id="text_61">
      <text style="font-size: 14px; font-family: 'SimSun', 'DejaVu Sans', sans-serif; text-anchor: end" x="537.053273" y="660.203906" transform="rotate(-0 537.053273 660.203906)">0.0</text>
     </g>
    </g>
    <g id="ytick_18">
     <g id="line2d_69">
      <path d="M 544.053273 618.905401 
L 932.227186 618.905401 
" clip-path="url(#p97872d448d)" style="fill: none; stroke: #b0b0b0; stroke-opacity: 0.3; stroke-width: 0.8; stroke-linecap: square"/>
     </g>
     <g id="line2d_70">
      <g>
       <use xlink:href="#m7f4ac0306b" x="544.053273" y="618.905401" style="stroke: #000000; stroke-width: 0.8"/>
      </g>
     </g>
     <g id="text_62">
      <text style="font-size: 14px; font-family: 'SimSun', 'DejaVu Sans', sans-serif; text-anchor: end" x="537.053273" y="623.909307" transform="rotate(-0 537.053273 623.909307)">0.2</text>
     </g>
    </g>
    <g id="ytick_19">
     <g id="line2d_71">
      <path d="M 544.053273 582.610802 
L 932.227186 582.610802 
" clip-path="url(#p97872d448d)" style="fill: none; stroke: #b0b0b0; stroke-opacity: 0.3; stroke-width: 0.8; stroke-linecap: square"/>
     </g>
     <g id="line2d_72">
      <g>
       <use xlink:href="#m7f4ac0306b" x="544.053273" y="582.610802" style="stroke: #000000; stroke-width: 0.8"/>
      </g>
     </g>
     <g id="text_63">
      <text style="font-size: 14px; font-family: 'SimSun', 'DejaVu Sans', sans-serif; text-anchor: end" x="537.053273" y="587.614708" transform="rotate(-0 537.053273 587.614708)">0.4</text>
     </g>
    </g>
    <g id="ytick_20">
     <g id="line2d_73">
      <path d="M 544.053273 546.316203 
L 932.227186 546.316203 
" clip-path="url(#p97872d448d)" style="fill: none; stroke: #b0b0b0; stroke-opacity: 0.3; stroke-width: 0.8; stroke-linecap: square"/>
     </g>
     <g id="line2d_74">
      <g>
       <use xlink:href="#m7f4ac0306b" x="544.053273" y="546.316203" style="stroke: #000000; stroke-width: 0.8"/>
      </g>
     </g>
     <g id="text_64">
      <text style="font-size: 14px; font-family: 'SimSun', 'DejaVu Sans', sans-serif; text-anchor: end" x="537.053273" y="551.320109" transform="rotate(-0 537.053273 551.320109)">0.6</text>
     </g>
    </g>
    <g id="ytick_21">
     <g id="line2d_75">
      <path d="M 544.053273 510.021604 
L 932.227186 510.021604 
" clip-path="url(#p97872d448d)" style="fill: none; stroke: #b0b0b0; stroke-opacity: 0.3; stroke-width: 0.8; stroke-linecap: square"/>
     </g>
     <g id="line2d_76">
      <g>
       <use xlink:href="#m7f4ac0306b" x="544.053273" y="510.021604" style="stroke: #000000; stroke-width: 0.8"/>
      </g>
     </g>
     <g id="text_65">
      <text style="font-size: 14px; font-family: 'SimSun', 'DejaVu Sans', sans-serif; text-anchor: end" x="537.053273" y="515.02551" transform="rotate(-0 537.053273 515.02551)">0.8</text>
     </g>
    </g>
    <g id="ytick_22">
     <g id="line2d_77">
      <path d="M 544.053273 473.727005 
L 932.227186 473.727005 
" clip-path="url(#p97872d448d)" style="fill: none; stroke: #b0b0b0; stroke-opacity: 0.3; stroke-width: 0.8; stroke-linecap: square"/>
     </g>
     <g id="line2d_78">
      <g>
       <use xlink:href="#m7f4ac0306b" x="544.053273" y="473.727005" style="stroke: #000000; stroke-width: 0.8"/>
      </g>
     </g>
     <g id="text_66">
      <text style="font-size: 14px; font-family: 'SimSun', 'DejaVu Sans', sans-serif; text-anchor: end" x="537.053273" y="478.730911" transform="rotate(-0 537.053273 478.730911)">1.0</text>
     </g>
    </g>
    <g id="ytick_23">
     <g id="line2d_79">
      <path d="M 544.053273 437.432406 
L 932.227186 437.432406 
" clip-path="url(#p97872d448d)" style="fill: none; stroke: #b0b0b0; stroke-opacity: 0.3; stroke-width: 0.8; stroke-linecap: square"/>
     </g>
     <g id="line2d_80">
      <g>
       <use xlink:href="#m7f4ac0306b" x="544.053273" y="437.432406" style="stroke: #000000; stroke-width: 0.8"/>
      </g>
     </g>
     <g id="text_67">
      <text style="font-size: 14px; font-family: 'SimSun', 'DejaVu Sans', sans-serif; text-anchor: end" x="537.053273" y="442.436312" transform="rotate(-0 537.053273 442.436312)">1.2</text>
     </g>
    </g>
    <g id="text_68">
     <text style="font-size: 14px; font-family: 'SimSun', 'DejaVu Sans', sans-serif; text-anchor: middle" x="510.248585" y="537.242553" transform="rotate(-90 510.248585 537.242553)">归一化响应</text>
    </g>
   </g>
   <g id="line2d_81">
    <path d="M 544.053273 655.2 
L 547.974221 653.910501 
L 551.89517 650.220241 
L 555.816118 644.4027 
L 559.737067 636.735833 
L 563.658016 627.497773 
L 567.578964 616.962922 
L 571.499913 605.398458 
L 575.420861 593.061268 
L 579.34181 580.195305 
L 583.262759 567.02937 
L 587.183707 553.775317 
L 591.104656 540.626653 
L 595.025605 527.757526 
L 598.946553 515.322082 
L 602.867502 503.454155 
L 606.78845 492.267276 
L 610.709399 481.854956 
L 614.630348 472.291234 
L 618.551296 463.631438 
L 622.472245 455.913139 
L 626.393193 449.157272 
L 630.314142 443.369376 
L 634.235091 438.540939 
L 638.156039 434.650819 
L 642.076988 431.666705 
L 645.997937 429.546601 
L 649.918885 428.240309 
L 653.839834 427.690888 
L 657.760782 427.836074 
L 661.681731 428.609644 
L 665.60268 429.942707 
L 669.523628 431.764912 
L 673.444577 434.00557 
L 677.365525 436.594673 
L 681.286474 439.46381 
L 685.207423 442.546974 
L 689.128371 445.781268 
L 693.04932 449.10749 
L 696.970269 452.470628 
L 700.891217 455.820234 
L 704.812166 459.110715 
L 708.733114 462.301515 
L 712.654063 465.357222 
L 716.575012 468.247586 
L 720.49596 470.947464 
L 724.416909 473.436702 
L 728.337858 475.699953 
L 732.258806 477.72645 
L 736.179755 479.509731 
L 740.100703 481.047335 
L 744.021652 482.340461 
L 747.942601 483.393618 
L 751.863549 484.214256 
L 755.784498 484.812384 
L 759.705446 485.200203 
L 763.626395 485.391724 
L 767.547344 485.40241 
L 771.468292 485.248824 
L 775.389241 484.948295 
L 779.31019 484.518605 
L 783.231138 483.977702 
L 787.152087 483.343427 
L 791.073035 482.633281 
L 794.993984 481.864206 
L 798.914933 481.052405 
L 802.835881 480.213179 
L 806.75683 479.3608 
L 810.677778 478.508404 
L 814.598727 477.667914 
L 818.519676 476.849984 
L 822.440624 476.063968 
L 826.361573 475.31791 
L 830.282522 474.61855 
L 834.20347 473.971355 
L 838.124419 473.380553 
L 842.045367 472.849197 
L 845.966316 472.379223 
L 849.887265 471.971531 
L 853.808213 471.626068 
L 857.729162 471.341914 
L 861.65011 471.117377 
L 865.571059 470.950087 
L 869.492008 470.837094 
L 873.412956 470.77496 
L 877.333905 470.759853 
L 881.254854 470.78764 
L 885.175802 470.853966 
L 889.096751 470.954343 
L 893.017699 471.084221 
L 896.938648 471.239055 
L 900.859597 471.414376 
L 904.780545 471.605837 
L 908.701494 471.809269 
L 912.622442 472.020721 
L 916.543391 472.236494 
L 920.46434 472.453172 
L 924.385288 472.66764 
L 928.306237 472.877103 
L 932.227186 473.079094 
" clip-path="url(#p97872d448d)" style="fill: none; stroke-dasharray: 1.5,2.475; stroke-dashoffset: 0; stroke: #95a5a6; stroke-width: 1.5"/>
   </g>
   <g id="line2d_82">
    <path d="M 544.053273 655.2 
L 547.974221 641.702249 
L 551.89517 629.112279 
L 555.816118 617.479432 
L 559.737067 606.835362 
L 563.658016 597.192395 
L 567.578964 588.542849 
L 571.499913 580.85928 
L 575.420861 574.095585 
L 579.34181 568.188855 
L 583.262759 563.06187 
L 587.183707 558.626081 
L 591.104656 554.784933 
L 595.025605 551.437368 
L 598.946553 548.481355 
L 602.867502 545.8173 
L 606.78845 543.351203 
L 610.709399 540.997443 
L 614.630348 538.681104 
L 618.551296 536.339766 
L 622.472245 533.924728 
L 626.393193 531.401631 
L 630.314142 528.750505 
L 634.235091 525.965252 
L 638.156039 523.05264 
L 642.076988 520.03085 
L 645.997937 516.927685 
L 649.918885 513.778506 
L 653.839834 510.624019 
L 657.760782 507.507986 
L 661.681731 504.474977 
L 665.60268 501.568228 
L 669.523628 498.827706 
L 673.444577 496.288432 
L 677.365525 493.979113 
L 681.286474 491.921133 
L 685.207423 490.127902 
L 689.128371 488.604586 
L 693.04932 487.348189 
L 696.970269 486.347981 
L 700.891217 485.586213 
L 704.812166 485.039091 
L 708.733114 484.67794 
L 712.654063 484.470511 
L 716.575012 484.382358 
L 720.49596 484.378234 
L 724.416909 484.423445 
L 728.337858 484.485104 
L 732.258806 484.533251 
L 736.179755 484.541792 
L 740.100703 484.489232 
L 744.021652 484.359188 
L 747.942601 484.140663 
L 751.863549 483.828104 
L 755.784498 483.421227 
L 759.705446 482.924656 
L 763.626395 482.34738 
L 767.547344 481.702077 
L 771.468292 481.004328 
L 775.389241 480.271763 
L 779.31019 479.523182 
L 783.231138 478.777677 
L 787.152087 478.053804 
L 791.073035 477.368819 
L 794.993984 476.738026 
L 798.914933 476.174231 
L 802.835881 475.687339 
L 806.75683 475.284097 
L 810.677778 474.967967 
L 814.598727 474.739161 
L 818.519676 474.59479 
L 822.440624 474.529137 
L 826.361573 474.534034 
L 830.282522 474.599309 
L 834.20347 474.713296 
L 838.124419 474.86337 
L 842.045367 475.036497 
L 845.966316 475.219764 
L 849.887265 475.400879 
L 853.808213 475.568609 
L 857.729162 475.713164 
L 861.65011 475.826486 
L 865.571059 475.902464 
L 869.492008 475.937049 
L 873.412956 475.928291 
L 877.333905 475.876275 
L 881.254854 475.782997 
L 885.175802 475.652152 
L 889.096751 475.488883 
L 893.017699 475.299475 
L 896.938648 475.091029 
L 900.859597 474.87112 
L 904.780545 474.647452 
L 908.701494 474.427539 
L 912.622442 474.218402 
L 916.543391 474.026311 
L 920.46434 473.856568 
L 924.385288 473.71335 
L 928.306237 473.599594 
L 932.227186 473.516954 
" clip-path="url(#p97872d448d)" style="fill: none; stroke-dasharray: 5.55,2.4; stroke-dashoffset: 0; stroke: #3498db; stroke-width: 1.5"/>
   </g>
   <g id="line2d_83">
    <path d="M 544.053273 655.2 
L 547.974221 642.811707 
L 551.89517 631.269103 
L 555.816118 620.514458 
L 559.737067 610.493981 
L 563.658016 601.157554 
L 567.578964 592.45848 
L 571.499913 584.35325 
L 575.420861 576.801326 
L 579.34181 569.764935 
L 583.262759 563.208885 
L 587.183707 557.100385 
L 591.104656 551.408883 
L 595.025605 546.105913 
L 598.946553 541.164952 
L 602.867502 536.561286 
L 606.78845 532.27189 
L 610.709399 528.275311 
L 614.630348 524.551559 
L 618.551296 521.08201 
L 622.472245 517.84931 
L 626.393193 514.837291 
L 630.314142 512.030889 
L 634.235091 509.416066 
L 638.156039 506.979745 
L 642.076988 504.709739 
L 645.997937 502.594696 
L 649.918885 500.624037 
L 653.839834 498.787905 
L 657.760782 497.077117 
L 661.681731 495.483117 
L 665.60268 493.997931 
L 669.523628 492.614132 
L 673.444577 491.324798 
L 677.365525 490.123481 
L 681.286474 489.004172 
L 685.207423 487.961273 
L 689.128371 486.989568 
L 693.04932 486.084196 
L 696.970269 485.24063 
L 700.891217 484.45465 
L 704.812166 483.722325 
L 708.733114 483.039992 
L 712.654063 482.404239 
L 716.575012 481.811886 
L 720.49596 481.25997 
L 724.416909 480.74573 
L 728.337858 480.266595 
L 732.258806 479.820169 
L 736.179755 479.404218 
L 740.100703 479.016661 
L 744.021652 478.655562 
L 747.942601 478.319113 
L 751.863549 478.005632 
L 755.784498 477.71355 
L 759.705446 477.441408 
L 763.626395 477.187843 
L 767.547344 476.951589 
L 771.468292 476.731462 
L 775.389241 476.526362 
L 779.31019 476.335263 
L 783.231138 476.15721 
L 787.152087 475.991311 
L 791.073035 475.836738 
L 794.993984 475.692717 
L 798.914933 475.558527 
L 802.835881 475.433498 
L 806.75683 475.317003 
L 810.677778 475.208462 
L 814.598727 475.10733 
L 818.519676 475.013102 
L 822.440624 474.925306 
L 826.361573 474.843504 
L 830.282522 474.767286 
L 834.20347 474.696271 
L 838.124419 474.630104 
L 842.045367 474.568453 
L 845.966316 474.511012 
L 849.887265 474.457491 
L 853.808213 474.407625 
L 857.729162 474.361162 
L 861.65011 474.317871 
L 865.571059 474.277535 
L 869.492008 474.239953 
L 873.412956 474.204937 
L 877.333905 474.172311 
L 881.254854 474.141912 
L 885.175802 474.113588 
L 889.096751 474.087198 
L 893.017699 474.062609 
L 896.938648 474.039699 
L 900.859597 474.018353 
L 904.780545 473.998464 
L 908.701494 473.979933 
L 912.622442 473.962667 
L 916.543391 473.946579 
L 920.46434 473.93159 
L 924.385288 473.917624 
L 928.306237 473.904611 
L 932.227186 473.892487 
" clip-path="url(#p97872d448d)" style="fill: none; stroke-dasharray: 5.55,2.4; stroke-dashoffset: 0; stroke: #e74c3c; stroke-width: 1.5"/>
   </g>
   <g id="line2d_84">
    <path d="M 544.053273 655.2 
L 547.974221 650.224994 
L 551.89517 638.0706 
L 555.816118 621.978729 
L 559.737067 604.207844 
L 563.658016 586.277058 
L 567.578964 569.158757 
L 571.499913 553.428735 
L 575.420861 539.381706 
L 579.34181 527.118949 
L 583.262759 516.6138 
L 587.183707 507.759744 
L 591.104656 500.405012 
L 595.025605 494.376846 
L 598.946553 489.497972 
L 602.867502 485.597284 
L 606.78845 482.516316 
L 610.709399 480.112698 
L 614.630348 478.261539 
L 618.551296 476.855403 
L 622.472245 475.803414 
L 626.393193 475.029839 
L 630.314142 474.472413 
L 634.235091 474.0806 
L 638.156039 473.813878 
L 642.076988 473.640151 
L 645.997937 473.534308 
L 649.918885 473.476948 
L 653.839834 473.453285 
L 657.760782 473.452218 
L 661.681731 473.465547 
L 665.60268 473.487335 
L 669.523628 473.513381 
L 673.444577 473.540802 
L 677.365525 473.567699 
L 681.286474 473.592891 
L 685.207423 473.615718 
L 689.128371 473.63588 
L 693.04932 473.653322 
L 696.970269 473.668149 
L 700.891217 473.68056 
L 704.812166 473.690805 
L 708.733114 473.699154 
L 712.654063 473.705872 
L 716.575012 473.711214 
L 720.49596 473.715409 
L 724.416909 473.718664 
L 728.337858 473.721154 
L 732.258806 473.723033 
L 736.179755 473.724429 
L 740.100703 473.725445 
L 744.021652 473.72617 
L 747.942601 473.726673 
L 751.863549 473.727009 
L 755.784498 473.727222 
L 759.705446 473.727346 
L 763.626395 473.727408 
L 767.547344 473.727426 
L 771.468292 473.727416 
L 775.389241 473.727389 
L 779.31019 473.727352 
L 783.231138 473.727311 
L 787.152087 473.72727 
L 791.073035 473.72723 
L 794.993984 473.727193 
L 798.914933 473.72716 
L 802.835881 473.727131 
L 806.75683 473.727106 
L 810.677778 473.727085 
L 814.598727 473.727068 
L 818.519676 473.727054 
L 822.440624 473.727042 
L 826.361573 473.727033 
L 830.282522 473.727026 
L 834.20347 473.72702 
L 838.124419 473.727016 
L 842.045367 473.727012 
L 845.966316 473.72701 
L 849.887265 473.727008 
L 853.808213 473.727007 
L 857.729162 473.727006 
L 861.65011 473.727005 
L 865.571059 473.727005 
L 869.492008 473.727004 
L 873.412956 473.727004 
L 877.333905 473.727004 
L 881.254854 473.727004 
L 885.175802 473.727004 
L 889.096751 473.727004 
L 893.017699 473.727004 
L 896.938648 473.727004 
L 900.859597 473.727005 
L 904.780545 473.727005 
L 908.701494 473.727005 
L 912.622442 473.727005 
L 916.543391 473.727005 
L 920.46434 473.727005 
L 924.385288 473.727005 
L 928.306237 473.727005 
L 932.227186 473.727005 
" clip-path="url(#p97872d448d)" style="fill: none; stroke: #2ecc71; stroke-width: 3; stroke-linecap: square"/>
   </g>
   <g id="line2d_85">
    <path d="M 544.053273 655.2 
L 547.974221 638.648873 
L 551.89517 623.56211 
L 555.816118 609.828237 
L 559.737067 597.342935 
L 563.658016 586.008346 
L 567.578964 575.732499 
L 571.499913 566.428861 
L 575.420861 558.015971 
L 579.34181 550.417169 
L 583.262759 543.56037 
L 587.183707 537.37791 
L 591.104656 531.806408 
L 595.025605 526.786664 
L 598.946553 522.263578 
L 602.867502 518.186056 
L 606.78845 514.506938 
L 610.709399 511.182908 
L 614.630348 508.174389 
L 618.551296 505.445438 
L 622.472245 502.963616 
L 626.393193 500.699843 
L 630.314142 498.628238 
L 634.235091 496.725947 
L 638.156039 494.972952 
L 642.076988 493.351871 
L 645.997937 491.847752 
L 649.918885 490.447855 
L 653.839834 489.141436 
L 657.760782 487.919529 
L 661.681731 486.774731 
L 665.60268 485.700991 
L 669.523628 484.693411 
L 673.444577 483.748051 
L 677.365525 482.861755 
L 681.286474 482.031982 
L 685.207423 481.256662 
L 689.128371 480.534055 
L 693.04932 479.862645 
L 696.970269 479.241029 
L 700.891217 478.667843 
L 704.812166 478.141692 
L 708.733114 477.661098 
L 712.654063 477.224466 
L 716.575012 476.830058 
L 720.49596 476.475985 
L 724.416909 476.160203 
L 728.337858 475.880524 
L 732.258806 475.634629 
L 736.179755 475.420095 
L 740.100703 475.234418 
L 744.021652 475.07504 
L 747.942601 474.939388 
L 751.863549 474.8249 
L 755.784498 474.729055 
L 759.705446 474.649411 
L 763.626395 474.583621 
L 767.547344 474.529469 
L 771.468292 474.484884 
L 775.389241 474.447957 
L 779.31019 474.41696 
L 783.231138 474.39035 
L 787.152087 474.366774 
L 791.073035 474.345076 
L 794.993984 474.324288 
L 798.914933 474.303628 
L 802.835881 474.282489 
L 806.75683 474.26043 
L 810.677778 474.237162 
L 814.598727 474.21253 
L 818.519676 474.186502 
L 822.440624 474.159147 
L 826.361573 474.130622 
L 830.282522 474.10115 
L 834.20347 474.071006 
L 838.124419 474.040503 
L 842.045367 474.009973 
L 845.966316 473.979754 
L 849.887265 473.950182 
L 853.808213 473.921573 
L 857.729162 473.894223 
L 861.65011 473.868392 
L 865.571059 473.844304 
L 869.492008 473.822142 
L 873.412956 473.802044 
L 877.333905 473.784104 
L 881.254854 473.768372 
L 885.175802 473.754853 
L 889.096751 473.743515 
L 893.017699 473.734287 
L 896.938648 473.727067 
L 900.859597 473.721723 
L 904.780545 473.718102 
L 908.701494 473.716032 
L 912.622442 473.715329 
L 916.543391 473.715799 
L 920.46434 473.717247 
L 924.385288 473.719479 
L 928.306237 473.722305 
L 932.227186 473.725546 
" clip-path="url(#p97872d448d)" style="fill: none; stroke-dasharray: 5.55,2.4; stroke-dashoffset: 0; stroke: #f39c12; stroke-width: 1.5"/>
   </g>
   <g id="line2d_86">
    <path d="M 544.053273 473.727005 
L 932.227186 473.727005 
" clip-path="url(#p97872d448d)" style="fill: none; stroke: #008000; stroke-opacity: 0.5; stroke-linecap: square"/>
   </g>
   <g id="line2d_87">
    <path d="M 544.053273 464.653355 
L 932.227186 464.653355 
" clip-path="url(#p97872d448d)" style="fill: none; stroke-dasharray: 1.5,2.475; stroke-dashoffset: 0; stroke: #ffa500; stroke-opacity: 0.5; stroke-width: 1.5"/>
   </g>
   <g id="line2d_88">
    <path d="M 544.053273 482.800655 
L 932.227186 482.800655 
" clip-path="url(#p97872d448d)" style="fill: none; stroke-dasharray: 1.5,2.475; stroke-dashoffset: 0; stroke: #ffa500; stroke-opacity: 0.5; stroke-width: 1.5"/>
   </g>
   <g id="patch_58">
    <path d="M 544.053273 655.2 
L 544.053273 419.285106 
" style="fill: none; stroke: #000000; stroke-width: 0.8; stroke-linejoin: miter; stroke-linecap: square"/>
   </g>
   <g id="patch_59">
    <path d="M 932.227186 655.2 
L 932.227186 419.285106 
" style="fill: none; stroke: #000000; stroke-width: 0.8; stroke-linejoin: miter; stroke-linecap: square"/>
   </g>
   <g id="patch_60">
    <path d="M 544.053273 655.2 
L 932.227186 655.2 
" style="fill: none; stroke: #000000; stroke-width: 0.8; stroke-linejoin: miter; stroke-linecap: square"/>
   </g>
   <g id="patch_61">
    <path d="M 544.053273 419.285106 
L 932.227186 419.285106 
" style="fill: none; stroke: #000000; stroke-width: 0.8; stroke-linejoin: miter; stroke-linecap: square"/>
   </g>
   <g id="text_69">
    <text style="font-weight: 700; font-size: 12px; font-family: 'SimSun', 'DejaVu Sans', sans-serif; text-anchor: middle" x="738.140229" y="413.285106" transform="rotate(-0 738.140229 413.285106)">(d) 故障响应阶跃对比</text>
   </g>
   <g id="legend_4">
    <g id="patch_62">
     <path d="M 825.427186 649.2 
L 923.827186 649.2 
Q 926.227186 649.2 926.227186 646.8 
L 926.227186 550.265625 
Q 926.227186 547.865625 923.827186 547.865625 
L 825.427186 547.865625 
Q 823.027186 547.865625 823.027186 550.265625 
L 823.027186 646.8 
Q 823.027186 649.2 825.427186 649.2 
z
" style="fill: #ffffff; opacity: 0.8; stroke: #cccccc; stroke-linejoin: miter"/>
    </g>
    <g id="line2d_89">
     <path d="M 827.827186 557.04375 
L 839.827186 557.04375 
L 851.827186 557.04375 
" style="fill: none; stroke-dasharray: 1.5,2.475; stroke-dashoffset: 0; stroke: #95a5a6; stroke-width: 1.5"/>
    </g>
    <g id="text_70">
     <text style="font-size: 12px; font-family: 'SimSun', 'DejaVu Sans', sans-serif; text-anchor: start" x="861.427186" y="561.24375" transform="rotate(-0 861.427186 561.24375)">PID</text>
    </g>
    <g id="line2d_90">
     <path d="M 827.827186 573.16875 
L 839.827186 573.16875 
L 851.827186 573.16875 
" style="fill: none; stroke-dasharray: 5.55,2.4; stroke-dashoffset: 0; stroke: #3498db; stroke-width: 1.5"/>
    </g>
    <g id="text_71">
     <text style="font-size: 12px; font-family: 'SimSun', 'DejaVu Sans', sans-serif; text-anchor: start" x="861.427186" y="577.36875" transform="rotate(-0 861.427186 577.36875)">DQN</text>
    </g>
    <g id="line2d_91">
     <path d="M 827.827186 589.29375 
L 839.827186 589.29375 
L 851.827186 589.29375 
" style="fill: none; stroke-dasharray: 5.55,2.4; stroke-dashoffset: 0; stroke: #e74c3c; stroke-width: 1.5"/>
    </g>
    <g id="text_72">
     <text style="font-size: 12px; font-family: 'SimSun', 'DejaVu Sans', sans-serif; text-anchor: start" x="861.427186" y="593.49375" transform="rotate(-0 861.427186 593.49375)">SAC</text>
    </g>
    <g id="line2d_92">
     <path d="M 827.827186 605.5125 
L 839.827186 605.5125 
L 851.827186 605.5125 
" style="fill: none; stroke: #2ecc71; stroke-width: 3; stroke-linecap: square"/>
    </g>
    <g id="text_73">
     <text style="font-size: 12px; font-family: 'SimSun', 'DejaVu Sans', sans-serif; text-anchor: start" x="861.427186" y="609.7125" transform="rotate(-0 861.427186 609.7125)">TD-MPC2 ★</text>
    </g>
    <g id="line2d_93">
     <path d="M 827.827186 621.6375 
L 839.827186 621.6375 
L 851.827186 621.6375 
" style="fill: none; stroke-dasharray: 5.55,2.4; stroke-dashoffset: 0; stroke: #f39c12; stroke-width: 1.5"/>
    </g>
    <g id="text_74">
     <text style="font-size: 12px; font-family: 'SimSun', 'DejaVu Sans', sans-serif; text-anchor: start" x="861.427186" y="625.8375" transform="rotate(-0 861.427186 625.8375)">DPMD</text>
    </g>
    <g id="line2d_94">
     <path d="M 827.827186 638.653125 
L 839.827186 638.653125 
L 851.827186 638.653125 
" style="fill: none; stroke-dasharray: 1.5,2.475; stroke-dashoffset: 0; stroke: #ffa500; stroke-opacity: 0.5; stroke-width: 1.5"/>
    </g>
    <g id="text_75">
     <text style="font-size: 12px; font-family: 'SimSun', 'DejaVu Sans', sans-serif; text-anchor: start" x="861.427186" y="642.853125" transform="rotate(-0 861.427186 642.853125)">±5%容差</text>
    </g>
   </g>
  </g>
  <g id="text_76">
   <text style="font-weight: 700; font-size: 15px; font-family: 'SimSun', 'DejaVu Sans', sans-serif; text-anchor: middle" x="471.427186" y="19.094531" transform="rotate(-0 471.427186 19.094531)">五种控制方法综合性能对比 (PID+DQN+SAC+TD-MPC2+DPMD)</text>
  </g>
 </g>
 <defs>
  <clipPath id="pcdebeb5e4b">
   <rect x="39.427186" y="100.8" width="388.173913" height="235.914894"/>
  </clipPath>
  <clipPath id="p91f8e8b19f">
   <rect x="544.053273" y="100.8" width="388.173913" height="235.914894"/>
  </clipPath>
  <clipPath id="p327998d3a3">
   <path d="M 351.471589 537.242553 
C 351.471589 521.752523 348.420391 506.413114 342.492613 492.102193 
C 336.564835 477.791271 327.875758 464.787148 316.922653 453.834043 
C 305.969547 442.880937 292.965424 434.19186 278.654503 428.264082 
C 264.343581 422.336305 249.004172 419.285106 233.514142 419.285106 
C 218.024112 419.285106 202.684703 422.336305 188.373781 428.264082 
C 174.06286 434.19186 161.058737 442.880937 150.105632 453.834043 
C 139.152526 464.787148 130.463449 477.791271 124.535671 492.102193 
C 118.607893 506.413114 115.556695 521.752523 115.556695 537.242553 
C 115.556695 552.732583 118.607893 568.071992 124.535671 582.382914 
C 130.463449 596.693835 139.152526 609.697958 150.105632 620.651064 
C 161.058737 631.604169 174.06286 640.293246 188.373781 646.221024 
C 202.684703 652.148802 218.024112 655.2 233.514142 655.2 
C 249.004172 655.2 264.343581 652.148802 278.654503 646.221024 
C 292.965424 640.293246 305.969547 631.604169 316.922653 620.651064 
C 327.875758 609.697958 336.564835 596.693835 342.492613 582.382914 
C 348.420391 568.071992 351.471589 552.732583 351.471589 537.242553 
M 233.514142 537.242553 
C 233.514142 537.242553 233.514142 537.242553 233.514142 537.242553 
C 233.514142 537.242553 233.514142 537.242553 233.514142 537.242553 
C 233.514142 537.242553 233.514142 537.242553 233.514142 537.242553 
C 233.514142 537.242553 233.514142 537.242553 233.514142 537.242553 
C 233.514142 537.242553 233.514142 537.242553 233.514142 537.242553 
C 233.514142 537.242553 233.514142 537.242553 233.514142 537.242553 
C 233.514142 537.242553 233.514142 537.242553 233.514142 537.242553 
C 233.514142 537.242553 233.514142 537.242553 233.514142 537.242553 
C 233.514142 537.242553 233.514142 537.242553 233.514142 537.242553 
C 233.514142 537.242553 233.514142 537.242553 233.514142 537.242553 
C 233.514142 537.242553 233.514142 537.242553 233.514142 537.242553 
C 233.514142 537.242553 233.514142 537.242553 233.514142 537.242553 
C 233.514142 537.242553 233.514142 537.242553 233.514142 537.242553 
C 233.514142 537.242553 233.514142 537.242553 233.514142 537.242553 
C 233.514142 537.242553 233.514142 537.242553 233.514142 537.242553 
C 233.514142 537.242553 233.514142 537.242553 233.514142 537.242553 
z
"/>
  </clipPath>
  <clipPath id="p97872d448d">
   <rect x="544.053273" y="419.285106" width="388.173913" height="235.914894"/>
  </clipPath>
 </defs>
</svg>
